<svg width="16" height="16" viewBox="0 0 16 16" xmlns="http://www.w3.org/2000/svg">
  <path d="M14 5.33333333c1.1045695 0 2 .8954305 2 1.99999997V16H7.33333333c-1.1045695 0-2-.8954305-2-2V5.33333333L12.666 5.333 14 5.33333333zm-3.3333333-2.66666666c.8706388 0 1.6113429.55631633 1.8860317 1.33286835L4 4l-.00046498 8.5526984c-.77655202-.2746888-1.33286835-1.0153929-1.33286835-1.8860317V2.66666667h8.00000003zM8.33333333 0c.87063879 0 1.61134294.55631633 1.88603177 1.33286835l-8.88603177.00046498-.00046498 8.88603177C.55631633 9.9446763 0 9.2039721 0 8.3333333V2C0 .8954305.8954305 0 2 0h6.33333333z" fill="#A3BBCC" fill-rule="evenodd"/>
</svg>
