<svg fill="none" xmlns="http://www.w3.org/2000/svg" viewBox="0 0 23 19">
<title>Graduation Hat</title>
<path d="m22.447 6.08-10-5a.956.956 0 0 0-.9 0l-10 5c-.2.1-.36.27-.45.46-.06.12-.11.32-.11.43v5.76c0 .55.44 1 1 1 .55 0 1-.45 1-1V8.44l2 .8v4.9a1 1 0 0 0 .55.89c1.71.85 3.48 1.91 6.447 1.91 2.96 0 4.72-1.061 6.44-1.92.33-.18.55-.52.55-.9V9.21l3.37-1.35a1.004 1.004 0 0 0 .06-1.83l.043.05Zm-5.45 7.45-.98.48a9.046 9.046 0 0 1-8.051 0l-.98-.49v-3.49l4.629 1.85c.11.04.24.07.37.07.12 0 .25-.03.37-.08l4.629-1.86v3.48l.013.04Zm-5-3.64-7.57-3.03 7.56-3.78 7.561 3.78-7.561 3.02.01.01ZM2 14.97c-.56 0-1 .44-1 1v2c0 .55.44 1 1 1 .55 0 1-.45 1-1v-2c0-.56-.45-1-1-1Z" fill="#A3BBCC"/></svg>