<svg viewBox="0 0 20 20" fill="none" xmlns="http://www.w3.org/2000/svg">
  <path d="m18.42 4.27-2.7-2.7-1.24.69-1.32.73c-.17.1-.33.03-.4-.15l-.81-2.7L11.9 0H8.08a239.01 239.01 0 0 0-.77 2.83c-.06.2-.22.27-.4.17L4.47 1.64c-.07-.04-.13-.07-.21.01L1.62 4.22l-.04.05.83 1.51.6 1.07c.09.18.03.32-.15.37l-2.73.82A.8.8 0 0 0 0 8.1v3.82l1.82.5.99.27c.24.07.3.2.18.42l-1.35 2.43-.05.1 2.78 2.78.68-.37L6.9 17c.2-.11.34-.05.4.17l.74 2.68.05.15h3.82l.4-1.34c.16-.5.3-1.01.45-1.52.06-.18.2-.25.37-.14l2.44 1.35c.05.03.1.05.09 0 .44-.4.88-.79 1.3-1.2.46-.45.9-.92 1.35-1.37.1-.1.08-.16.03-.26L17 13.1c-.1-.18-.02-.35.17-.4l2.68-.74.15-.05V8.09l-1.34-.4-1.52-.46a.25.25 0 0 1-.14-.37l1.35-2.43.07-.16Zm-3.6 5.69a4.78 4.78 0 0 1-4.77 4.8 4.73 4.73 0 0 1-4.8-4.79 4.78 4.78 0 1 1 9.58-.01Z" fill="#A3BBCC"/>
</svg>
