<svg fill="none" xmlns="http://www.w3.org/2000/svg" viewBox="0 0 95 95"><circle opacity=".5" cx="48" cy="47.294" r="47" stroke="#B6B6BD" stroke-width=".6" stroke-linecap="round" stroke-dasharray="4 4"/><circle cx="46.698" cy="47.698" r="22.284" stroke="#169FCC" stroke-width="1.173"/><circle cx="46.698" cy="47.698" r="17.593" stroke="#169FCC" stroke-width="1.173"/><mask id="a" style="mask-type:alpha" maskUnits="userSpaceOnUse" x="17" y="40" width="47" height="43"><path fill-rule="evenodd" clip-rule="evenodd" d="M39.64 73.655h-8.244l-5.703 7.597L24.39 83H17v-9.322l6.888-9.002H26.5l6.737-5.943 8.94 10.921-2.538 4.001Zm1.417 1.682h-8.626l-1.163 1.509 2.627 4.207L33.622 83h11.144l.77-1.947-4.479-5.716Zm-2.454-25.112-3.978 7.125 19.412 23.497L53.483 83h8.903L64 75.357l-20.774-25.14-4.623.008Zm13.448 7.656 4.815-3.984v-2.53l-1.675-2.368 1.236-1.295L46.772 40l-5.632 4.64-1.898 3.531h4.714l8.096 9.71Z" fill="#B6B6BD"/></mask><g mask="url(#a)"><circle cx="46.698" cy="47.698" r="17.006" fill="#E0E0E0"/></g><path d="M34.383 47.698c0-6.802 5.513-12.315 12.315-12.315" stroke="#91E1FC" stroke-width="1.173" stroke-linecap="round"/><path d="M71.914 61.186 61.358 71.74" stroke="#91E1FC" stroke-width="1.173"/><path d="M67.448 56.494 89.874 78.92A7.623 7.623 0 1 1 79.093 89.7l-21.92-21.919" stroke="#169FCC" stroke-width="1.173"/></svg>