<svg viewBox="0 0 20 20" fill="none" xmlns="http://www.w3.org/2000/svg">
  <title>Delete</title>
  <path d="M16.87 4.43h-3.56v-.18A2.26 2.26 0 0 0 11.06 2h-1.8A2.26 2.26 0 0 0 7 4.25v.18H3.44a.44.44 0 0 0-.44.44v.63a.44.44 0 0 0 .44.44h13.43a.44.44 0 0 0 .44-.44v-.63a.44.44 0 0 0-.44-.44Zm-8.51-.18a.91.91 0 0 1 .9-.9h1.8a.91.91 0 0 1 .9.9v.18h-3.6v-.18ZM13.83 15.94h-1.11V7.12h-2v8.82h-1.1V7.12H7.6v8.82H6.49V7.12h-2.2v9.06A1.82 1.82 0 0 0 6.13 18h8.07a1.82 1.82 0 0 0 1.83-1.82V7.12h-2.2v8.82Z" fill="#A3BBCC"/>
</svg>
