<svg fill="none" xmlns="http://www.w3.org/2000/svg" viewBox="0 0 96 96">
  <title>State Gruceo</title>
<path fill-rule="evenodd" clip-rule="evenodd" d="M14.5 88c-.276 0-.5-.121-.5-.27v-3.535c0-.149.224-.27.5-.27s.5.121.5.27v3.535c0 .149-.224.27-.5.27Zm0-7.069c-.276 0-.5-.12-.5-.27v-3.534c0-.15.224-.27.5-.27s.5.12.5.27v3.534c0 .15-.224.27-.5.27Zm0-7.068c-.276 0-.5-.121-.5-.27v-3.535c0-.15.224-.27.5-.27s.5.12.5.27v3.534c0 .15-.224.27-.5.27Zm0-7.069c-.276 0-.5-.12-.5-.27v-3.535c0-.149.224-.27.5-.27s.5.121.5.27v3.535c0 .15-.224.27-.5.27Zm0-7.069c-.276 0-.5-.12-.5-.27v-3.534c0-.15.224-.27.5-.27s.5.12.5.27v3.534c0 .15-.224.27-.5.27Zm0-7.068c-.276 0-.5-.121-.5-.27v-3.535c0-.15.224-.27.5-.27s.5.12.5.27v3.535c0 .149-.224.27-.5.27Zm0-7.069c-.276 0-.5-.12-.5-.27v-3.534c0-.15.224-.27.5-.27s.5.12.5.27v3.534c0 .15-.224.27-.5.27Zm0-7.069c-.276 0-.5-.12-.5-.27v-3.534c0-.15.224-.27.5-.27s.5.12.5.27v3.534c0 .15-.224.27-.5.27Zm0-7.068c-.276 0-.5-.121-.5-.27v-3.535c0-.149.224-.27.5-.27s.5.121.5.27v3.535c0 .149-.224.27-.5.27Zm0-7.069c-.276 0-.5-.12-.5-.27v-3.534c0-.15.224-.27.5-.27s.5.12.5.27v3.534c0 .15-.224.27-.5.27Zm0-7.068c-.276 0-.5-.122-.5-.27v-3.535c0-.15.224-.27.5-.27s.5.12.5.27v3.534c0 .15-.224.27-.5.27Zm0-7.07c-.276 0-.5-.12-.5-.27V6.44c0-.149.224-.27.5-.27s.5.121.5.27v3.535c0 .149-.224.27-.5.27ZM81.5 88.83c-.276 0-.5-.121-.5-.27v-3.535c0-.149.224-.27.5-.27s.5.121.5.27v3.535c0 .149-.224.27-.5.27Zm0-7.069c-.276 0-.5-.12-.5-.27v-3.534c0-.15.224-.27.5-.27s.5.12.5.27v3.534c0 .15-.224.27-.5.27Zm0-7.068c-.276 0-.5-.121-.5-.27v-3.535c0-.15.224-.27.5-.27s.5.12.5.27v3.534c0 .15-.224.27-.5.27Zm0-7.069c-.276 0-.5-.12-.5-.27v-3.535c0-.149.224-.27.5-.27s.5.121.5.27v3.535c0 .15-.224.27-.5.27Zm0-7.069c-.276 0-.5-.12-.5-.27v-3.534c0-.15.224-.27.5-.27s.5.12.5.27v3.534c0 .15-.224.27-.5.27Zm0-7.068c-.276 0-.5-.121-.5-.27v-3.535c0-.15.224-.27.5-.27s.5.12.5.27v3.535c0 .149-.224.27-.5.27Zm0-7.069c-.276 0-.5-.12-.5-.27v-3.535c0-.149.224-.27.5-.27s.5.121.5.27v3.535c0 .15-.224.27-.5.27Zm0-7.069c-.276 0-.5-.12-.5-.27v-3.534c0-.15.224-.27.5-.27s.5.12.5.27v3.534c0 .15-.224.27-.5.27Zm0-7.068c-.276 0-.5-.121-.5-.27v-3.535c0-.149.224-.27.5-.27s.5.121.5.27v3.535c0 .149-.224.27-.5.27Zm0-7.069c-.276 0-.5-.12-.5-.27v-3.534c0-.15.224-.27.5-.27s.5.12.5.27v3.534c0 .15-.224.27-.5.27Zm0-7.069c-.276 0-.5-.12-.5-.27V14.34c0-.15.224-.27.5-.27s.5.12.5.27v3.534c0 .15-.224.27-.5.27Zm0-7.068c-.276 0-.5-.121-.5-.27V7.27c0-.149.224-.27.5-.27s.5.121.5.27v3.535c0 .149-.224.27-.5.27Z" fill="#D6D6D6"/><path fill-rule="evenodd" clip-rule="evenodd" d="M91 79.5c0 .276-.127.5-.285.5h-3.721c-.158 0-.285-.224-.285-.5s.127-.5.285-.5h3.721c.158 0 .285.224.285.5Zm-7.444 0c0 .276-.127.5-.284.5H79.55c-.157 0-.284-.224-.284-.5s.127-.5.284-.5h3.722c.157 0 .284.224.284.5Zm-7.443 0c0 .276-.127.5-.285.5h-3.722c-.157 0-.284-.224-.284-.5s.127-.5.284-.5h3.722c.157 0 .285.224.285.5Zm-7.444 0c0 .276-.127.5-.284.5h-3.722c-.157 0-.285-.224-.285-.5s.128-.5.285-.5h3.722c.157 0 .284.224.284.5Zm-7.443 0c0 .276-.128.5-.285.5H57.22c-.157 0-.284-.224-.284-.5s.127-.5.284-.5h3.722c.157 0 .285.224.285.5Zm-7.444 0c0 .276-.127.5-.284.5h-3.722c-.157 0-.285-.224-.285-.5s.128-.5.285-.5h3.722c.157 0 .284.224.284.5Zm-7.443 0c0 .276-.128.5-.285.5h-3.722c-.157 0-.284-.224-.284-.5s.127-.5.284-.5h3.722c.157 0 .285.224.285.5Zm-7.444 0c0 .276-.127.5-.284.5h-3.722c-.157 0-.285-.224-.285-.5s.128-.5.285-.5h3.722c.157 0 .284.224.284.5Zm-7.443 0c0 .276-.128.5-.285.5h-3.722c-.157 0-.284-.224-.284-.5s.127-.5.284-.5h3.722c.157 0 .285.224.285.5Zm-7.444 0c0 .276-.127.5-.284.5h-3.722c-.157 0-.285-.224-.285-.5s.128-.5.285-.5h3.722c.157 0 .284.224.284.5Zm-7.443 0c0 .276-.128.5-.285.5h-3.722c-.157 0-.284-.224-.284-.5s.127-.5.284-.5h3.722c.157 0 .285.224.285.5Zm-7.444 0c0 .276-.127.5-.285.5H5.115c-.158 0-.285-.224-.285-.5s.127-.5.285-.5h3.721c.158 0 .285.224.285.5ZM91 16.5c0 .276-.127.5-.285.5h-3.721c-.158 0-.285-.224-.285-.5s.127-.5.285-.5h3.721c.158 0 .285.224.285.5Zm-7.444 0c0 .276-.127.5-.284.5H79.55c-.157 0-.284-.224-.284-.5s.127-.5.284-.5h3.722c.157 0 .284.224.284.5Zm-7.443 0c0 .276-.127.5-.285.5h-3.722c-.157 0-.284-.224-.284-.5s.127-.5.284-.5h3.722c.157 0 .285.224.285.5Zm-7.444 0c0 .276-.127.5-.284.5h-3.722c-.157 0-.285-.224-.285-.5s.128-.5.285-.5h3.722c.157 0 .284.224.284.5Zm-7.443 0c0 .276-.128.5-.285.5H57.22c-.157 0-.284-.224-.284-.5s.127-.5.284-.5h3.722c.157 0 .285.224.285.5Zm-7.444 0c0 .276-.127.5-.284.5h-3.722c-.157 0-.285-.224-.285-.5s.128-.5.285-.5h3.722c.157 0 .284.224.284.5Zm-7.443 0c0 .276-.128.5-.285.5h-3.722c-.157 0-.284-.224-.284-.5s.127-.5.284-.5h3.722c.157 0 .285.224.285.5Zm-7.444 0c0 .276-.127.5-.284.5h-3.722c-.157 0-.285-.224-.285-.5s.128-.5.285-.5h3.722c.157 0 .284.224.284.5Zm-7.443 0c0 .276-.128.5-.285.5h-3.722c-.157 0-.284-.224-.284-.5s.127-.5.284-.5h3.722c.157 0 .285.224.285.5Zm-7.444 0c0 .276-.127.5-.284.5h-3.722c-.157 0-.285-.224-.285-.5s.128-.5.285-.5h3.722c.157 0 .284.224.284.5Zm-7.443 0c0 .276-.128.5-.285.5h-3.722c-.157 0-.284-.224-.284-.5s.127-.5.284-.5h3.722c.157 0 .285.224.285.5Zm-7.444 0c0 .276-.127.5-.285.5H5.115c-.158 0-.285-.224-.285-.5s.127-.5.285-.5h3.721c.158 0 .285.224.285.5Z" fill="#D6D6D6"/><circle opacity=".5" cx="48" cy="48.294" r="47" stroke="#B6B6BD" stroke-linecap="round" stroke-dasharray="4 4"/><path fill-rule="evenodd" clip-rule="evenodd" d="M45.85 25.621c-.208.167-.457.202-.558.077l-1.728-2.136c-.1-.124-.014-.361.194-.528.207-.167.457-.201.557-.077l1.729 2.136c.1.125.013.361-.194.528Zm-4.108-5.09c-.207.168-.457.202-.557.077l-1.468-1.88c-.101-.124-.014-.36.193-.528.208-.167.457-.201.558-.076l1.468 1.879c.1.125.014.361-.194.528ZM38.099 39.446c-.215.173-.471.212-.571.088l-2.38-2.955c-.1-.124-.008-.366.207-.54.216-.172.471-.212.572-.087l2.38 2.955c.1.124.007.366-.208.54Zm-4.76-5.909c-.214.174-.47.213-.57.088l-2.38-2.954c-.1-.125-.008-.367.207-.54.215-.173.471-.212.572-.088l2.38 2.955c.1.125.007.366-.208.54Zm-4.758-5.908c-.215.173-.471.212-.572.087l-2.38-2.954c-.1-.125-.007-.367.208-.54.215-.173.471-.212.572-.087l2.38 2.954c.1.125.007.366-.208.54Zm-4.76-5.91c-.214.174-.47.213-.57.088l-2.38-2.954c-.1-.125-.008-.366.207-.54.215-.173.471-.212.572-.087l2.38 2.954c.1.125.007.367-.208.54Z" fill="#D6D6D6"/><path d="M34.828 65.591h-.254l-.15.206-8.251 11.307-.001.002-1.736 2.394H14.5V66.291l9.717-13.064h3.723l.143-.13 9.35-8.487L49.82 60.173l-3.342 5.418H34.828Zm4.111 11.578.024-.175-.092-.152-3.625-5.972 1.33-1.776h11.982l6.161 8.089-.89 2.317H38.62l.318-2.33Zm29.13-.253.061-.24-.155-.194-27.877-34.713 5.456-10.051 6.15-.01 29.759 37.046L79.257 79.5H67.424l.646-2.584Zm.82-47.862-.272.294.227.33 2.334 3.395v3.38l-6.4 5.448-11.392-14.054-.15-.185H47.004l2.319-4.438 7.755-6.573 13.238 10.865-1.427 1.538Z" stroke="#169FCC"/></svg>