<svg width="25" height="20" viewBox="0 0 25 20" xmlns="http://www.w3.org/2000/svg">
  <path d="M8 11c2.7614237 0 5 2.2385763 5 5v3c0 .5522847-.4477153 1-1 1s-1-.4477153-1-1v-3c0-1.6568542-1.34314575-3-3-3H5c-1.65685425 0-3 1.3431458-3 3v3c0 .5522847-.44771525 1-1 1s-1-.4477153-1-1v-3c0-2.7614237 2.23857625-5 5-5h3zm11.3123697 0c2.7614237 0 5 2.2385763 5 5v3c0 .5522847-.4477153 1-1 1-.5522848 0-1-.4477153-1-1v-3c0-1.6568542-1.3431458-3-3-3h-3c-.9299288 0-1.7610348.4231106-2.3113077 1.0873214-.2258501-.6719921-.5674339-1.2908298-1.001062-1.8328235C13.8820467 11.4738656 15.0418696 11 16.3123697 11h3zM6 0c2.209139 0 4 1.790861 4 4v2c0 2.209139-1.790861 4-4 4S2 8.209139 2 6V4c0-2.209139 1.790861-4 4-4zm12 0c2.209139 0 4 1.790861 4 4v2c0 2.209139-1.790861 4-4 4s-4-1.790861-4-4V4c0-2.209139 1.790861-4 4-4zM6 2c-1.0543618 0-1.91816512.81587779-1.99451426 1.85073766L4 4v2c0 1.1045695.8954305 2 2 2 1.0543618 0 1.91816512-.81587779 1.99451426-1.85073766L8 6V4c0-1.1045695-.8954305-2-2-2zm12 0c-1.0543618 0-1.9181651.81587779-1.9945143 1.85073766L16 4v2c0 1.1045695.8954305 2 2 2 1.0543618 0 1.9181651-.81587779 1.9945143-1.85073766L20 6V4c0-1.1045695-.8954305-2-2-2z" fill="#A4BBCB" fill-rule="evenodd" />
</svg>
