<svg viewBox="0 0 16 15" fill="none" xmlns="http://www.w3.org/2000/svg">
  <title>Gateway</title>
  <path d="m13.91 7.84-2.1-1.38c-.16-.1-.36-.01-.36.15v.74H10.1v-1.8C10.1 4.7 9.29 4 8.28 4H5.75c-1 0-1.82.69-1.82 1.55v1.8h-1.7c-.13 0-.23.09-.23.2v.9c0 .11.1.2.23.2h1.73v1.8c0 .85.8 1.55 1.82 1.55H8.3c1 0 1.82-.69 1.82-1.55V8.64h1.34v.74c0 .16.22.25.36.15l2.1-1.39c.1-.07.1-.22 0-.3Zm-4.85 2.6c0 .37-.34.66-.77.66H5.76c-.42 0-.77-.3-.77-.66v-1.8h3.06V7.35H5v-1.8c0-.37.35-.66.77-.66H8.3c.43 0 .77.3.77.66v4.9Z" fill="#A3BBCC"/>
</svg>
