<svg width="18" height="18" viewBox="0 0 18 18" xmlns="http://www.w3.org/2000/svg">
  <path d="M7.370028 5.70809618c0-1.37428936.47141345-2.54083745 1.41424036-3.49964427S10.8856538.77024127 12.2599432.77024127c1.3742893 0 2.5408383.47940382 3.4996451 1.43821064.9588068.95880682 1.4382098 2.12535491 1.4382098 3.49964427 0 1.37429018-.479403 2.53284873-1.4382098 3.47567482-.9588068.9428269-2.1253558 1.4142404-3.4996451 1.4142404-1.3742894 0-2.53284793-.4714135-3.47567484-1.4142404C7.84144145 8.24094491 7.370028 7.08238636 7.370028 5.70809618zm2.444958 9.39630762c0-.5752849.1997509-1.0626783.5992544-1.4621809.3995026-.3995026.886896-.5992544 1.4621801-.5992544.575284 0 1.0546879.1997518 1.4382106.5992544.3835227.3995026.5752833.886896.5752833 1.4621809 0 .5752833-.1917606 1.0626775-.5752833 1.4621801-.3835227.3995026-.8629266.5992544-1.4382106.5992544-.5752841 0-1.0626775-.1997518-1.4621801-.5992544-.3995035-.3995026-.5992544-.8868968-.5992544-1.4621801zM.8022019 11.4129974c0-.8948864.31960228-1.66193185.95880683-2.3011364.63920454-.63920455 1.42222991-.95880682 2.34907691-.95880682.89488636 0 1.66193181.31161191 2.30113636.93483655.63920455.62322463.958806 1.39825967.958806 2.32510667 0 .9268461-.31960145 1.701882-.958806 2.3251066-.63920455.6232238-1.40625.9348365-2.30113636.9348365-.926847 0-1.70987237-.3196022-2.34907691-.9588068-.63920455-.6392045-.95880682-1.40625-.95880682-2.3011363z" fill="#A3BBCC" fill-rule="nonzero"/>
</svg>
