<svg
    width="17"
    height="16"
    viewBox="0 0 17 16"
    fill="none"
    xmlns="http://www.w3.org/2000/svg"
>
    <path
        fill-rule="evenodd"
        clip-rule="evenodd"
        d="M16.5 8C16.5 12.4183 12.9183 16 8.5 16C4.08172 16 0.5 12.4183 0.5 8C0.5 3.58172 4.08172 0 8.5 0C12.9183 0 16.5 3.58172 16.5 8ZM14.5 8C14.5 11.3137 11.8137 14 8.5 14C5.18629 14 2.5 11.3137 2.5 8C2.5 4.68629 5.18629 2 8.5 2C11.8137 2 14.5 4.68629 14.5 8ZM7.5 4.5C7.5 4.22386 7.72386 4 8 4H9C9.27614 4 9.5 4.22386 9.5 4.5V8.5C9.5 8.77614 9.27614 9 9 9H8C7.72386 9 7.5 8.77614 7.5 8.5V4.5ZM8 10C7.72386 10 7.5 10.2239 7.5 10.5V11.5C7.5 11.7761 7.72386 12 8 12H9C9.27614 12 9.5 11.7761 9.5 11.5V10.5C9.5 10.2239 9.27614 10 9 10H8Z"
        fill="#BFBFBF"
    />
</svg>
