<svg xmlns="http://www.w3.org/2000/svg" width="16px" height="16px" viewBox="0 0 16 16">
  <title>Workspaces</title>
  <path fill="#A3BBCC" fill-rule="evenodd" d="M1 0h5c.55228 0 1 .44772 1 1v5c0 .55228-.44772 1-1 1H1c-.55228 0-1-.44772-1-1V1c0-.55228.44772-1 1-1zm1 2v3h3V2H2zM1 9h5c.55228 0 1 .44772 1 1v5c0 .55228-.44772 1-1 1H1c-.55228 0-1-.44772-1-1v-5c0-.55228.44772-1 1-1zm1 2v3h3v-3H2zm8-11h5c.55228 0 1 .44772 1 1v5c0 .55228-.44772 1-1 1h-5c-.55228 0-1-.44772-1-1V1c0-.55228.44772-1 1-1zm1 2v3h3V2h-3zm-1 7h5c.55228 0 1 .44772 1 1v5c0 .55228-.44772 1-1 1h-5c-.55228 0-1-.44772-1-1v-5c0-.55228.44772-1 1-1zm1 2v3h3v-3h-3z"/>
</svg>
