<?xml version="1.0" encoding="UTF-8"?>
<svg width="18px" height="24px" viewBox="0 0 18 24" version="1.1" xmlns="http://www.w3.org/2000/svg" xmlns:xlink="http://www.w3.org/1999/xlink">
    <title>Combined Shape</title>
    <g id="Page-1" stroke="none" stroke-width="1" fill="none" fill-rule="evenodd" opacity="0.7">
        <path d="M14,0 L18,4 L18,22.0092049 C18,23.1086907 17.1073772,24 16.0049107,24 L1.99508929,24 C0.893231902,24 6.75015599e-14,23.1029738 6.75015599e-14,21.9950534 L6.75015599e-14,2.00494659 C6.75015599e-14,0.897645164 0.897060126,0 2.00585866,0 L14,0 Z M13,2 L2,2 L2,22 L16,22 L16,5 L13,5 L13,2 Z M14,16 L14,17.5 L4,17.5 L4,16 L14,16 Z M14,12 L14,13.5 L4,13.5 L4,12 L14,12 Z M14,8 L14,9.5 L4,9.5 L4,8 L14,8 Z" id="Combined-Shape" fill="#ACCEE6"></path>
    </g>
</svg>