<svg fill="none" xmlns="http://www.w3.org/2000/svg" viewBox="0 0 96 96">
  <title>State Configure</title>
<circle opacity=".5" cx="48" cy="48.294" r="47" stroke="#B6B6BD" stroke-linecap="round" stroke-dasharray="4 4"/><path d="M35.818 52.219a6.756 6.756 0 1 0 6.756 6.756 6.769 6.769 0 0 0-6.756-6.756Zm0 12.268a5.522 5.522 0 1 1 0-11.044 5.522 5.522 0 0 1 0 11.044Z" fill="#169FCC"/><path d="m50.604 55.76-2.792-.464v-.001a13.255 13.255 0 0 0-.92-2.215l1.638-2.306a1.243 1.243 0 0 0-.132-1.617l-2.77-2.762a1.264 1.264 0 0 0-1.618-.142l-2.316 1.65a12.345 12.345 0 0 0-2.206-.91l-.464-2.802a1.264 1.264 0 0 0-1.244-1.012h-3.925a1.264 1.264 0 0 0-1.243 1.012l-.465 2.801c-.763.232-1.502.536-2.205.91l-2.317-1.648a1.265 1.265 0 0 0-1.618.141l-2.771 2.771a1.245 1.245 0 0 0-.131 1.619l1.638 2.306a12.52 12.52 0 0 0-.94 2.204l-2.792.465a1.254 1.254 0 0 0-1.01 1.244v3.925c-.007.601.419 1.12 1.01 1.233l2.791.465c.231.771.54 1.517.921 2.225l-1.638 2.307a1.234 1.234 0 0 0 .131 1.607l2.771 2.781c.433.44 1.12.495 1.619.132l2.295-1.638c.71.38 1.456.692 2.225.93l.465 2.78v.001c.117.593.64 1.019 1.245 1.011h3.924a1.253 1.253 0 0 0 1.243-1.01l.465-2.772a12.65 12.65 0 0 0 2.226-.93l2.336 1.628a1.244 1.244 0 0 0 1.618-.132l2.771-2.78a1.234 1.234 0 0 0 .131-1.608l-1.638-2.307c.382-.708.69-1.454.921-2.225l2.791-.465a1.245 1.245 0 0 0 1.011-1.233v-3.925a1.254 1.254 0 0 0-1.031-1.244Zm-.192 5.169-3.176.536a.609.609 0 0 0-.496.444c-.255.94-.629 1.845-1.113 2.69a.618.618 0 0 0 0 .668l1.871 2.62-2.75 2.78-2.64-1.86a.617.617 0 0 0-.667 0 10.94 10.94 0 0 1-2.66 1.102.637.637 0 0 0-.455.495L37.8 73.57h-3.945l-.525-3.165a.638.638 0 0 0-.455-.496 10.947 10.947 0 0 1-2.66-1.103.635.635 0 0 0-.667.03l-2.64 1.832-2.802-2.772 1.87-2.619a.615.615 0 0 0 0-.667 11.45 11.45 0 0 1-1.101-2.67.609.609 0 0 0-.496-.446l-3.176-.536v-3.954l3.186-.536a.607.607 0 0 0 .486-.445c.254-.93.628-1.825 1.112-2.66a.638.638 0 0 0 0-.667l-1.881-2.64 2.78-2.781 2.63 1.87a.615.615 0 0 0 .668 0c.856-.477 1.77-.84 2.721-1.081a.637.637 0 0 0 .455-.496l.476-3.195H37.8l.526 3.186v-.001a.637.637 0 0 0 .455.496c.926.25 1.816.616 2.65 1.092a.615.615 0 0 0 .667 0l2.63-1.87 2.78 2.78-1.87 2.62a.636.636 0 0 0 0 .667c.485.833.856 1.728 1.102 2.66.068.23.26.402.496.445l3.186.536-.01 3.945Z" fill="#169FCC"/><path d="m56.804 47.092.374-2.195a9.416 9.416 0 0 0 1.71-.707l1.81 1.294c.445.325 1.06.282 1.456-.102l2.255-2.255a1.132 1.132 0 0 0 .121-1.466l-1.284-1.83c.282-.547.518-1.115.708-1.7l2.194-.374c.55-.09.954-.566.951-1.122v-3.197a1.133 1.133 0 0 0-.95-1.112l-2.205-.374a9.88 9.88 0 0 0-.698-1.69l1.295-1.82a1.133 1.133 0 0 0-.122-1.466l-2.255-2.255a1.133 1.133 0 0 0-1.467-.122l-1.82 1.295a10.55 10.55 0 0 0-1.7-.739l-.373-2.204A1.134 1.134 0 0 0 55.68 22h-3.196a1.133 1.133 0 0 0-1.122.95l-.364 2.205c-.584.18-1.15.414-1.69.698l-1.82-1.294a1.134 1.134 0 0 0-1.467.12l-2.255 2.297c-.4.39-.451 1.015-.121 1.466l1.294 1.82v.001a9.945 9.945 0 0 0-.707 1.689l-2.225.374a1.124 1.124 0 0 0-.951 1.112v3.197a1.123 1.123 0 0 0 .95 1.122l2.195.374c.182.586.416 1.155.698 1.7l-1.254 1.81c-.33.45-.278 1.076.121 1.466l2.286 2.276a1.133 1.133 0 0 0 1.466.12l1.81-1.294a9.62 9.62 0 0 0 1.7.709l.364 2.194c.093.548.567.95 1.122.95h3.196a1.142 1.142 0 0 0 1.093-.97Zm-4.227-.294-.456-2.487a.616.616 0 0 0-.455-.496 9.254 9.254 0 0 1-2.144-.89.636.636 0 0 0-.668 0l-2.022 1.477-2.144-2.144 1.466-2.023a.618.618 0 0 0 0-.668 8.997 8.997 0 0 1-.89-2.134.616.616 0 0 0-.495-.455l-2.498-.414v-3.035l2.498-.415v.001a.617.617 0 0 0 .495-.455 8.981 8.981 0 0 1 .89-2.134.619.619 0 0 0 0-.668l-1.476-2.022 2.144-2.144 2.022 1.476c.203.13.465.13.668 0a8.965 8.965 0 0 1 2.134-.88.607.607 0 0 0 .445-.495l.425-2.508h3.034l.415 2.508c.04.24.218.435.455.495a9.106 9.106 0 0 1 2.123.88c.204.13.464.13.668 0l2.023-1.476 2.134 2.144-1.467 2.022a.636.636 0 0 0 0 .668c.391.668.69 1.386.89 2.134.06.237.255.414.495.455l2.499.415v3.034l-2.498.415a.65.65 0 0 0-.496.454 8.922 8.922 0 0 1-.88 2.134.618.618 0 0 0 0 .668l1.466 2.022-2.133 2.144-2.023-1.476a.657.657 0 0 0-.678 0 8.897 8.897 0 0 1-2.144.89.609.609 0 0 0-.445.496l-.415 2.488h-2.962Z" fill="#91E1FC"/><path d="M59.697 35.048a5.614 5.614 0 1 0-5.614 5.612 5.624 5.624 0 0 0 5.614-5.612Zm-5.613 4.378a4.38 4.38 0 1 1 0-8.758 4.38 4.38 0 0 1 0 8.758Z" fill="#91E1FC"/><path d="m73.279 56.71-1.659-.282a9.071 9.071 0 0 0-.506-1.214l1.012-1.376c.299-.407.251-.973-.112-1.325l-1.79-1.79a1.011 1.011 0 0 0-1.325-.101l-1.376 1.011h.001a7.175 7.175 0 0 0-1.214-.505l-.303-1.7a1.011 1.011 0 0 0-1.011-.86h-2.529a1.012 1.012 0 0 0-1.011.86l-.233 1.67c-.42.13-.825.3-1.213.505l-1.376-1.011a1.011 1.011 0 0 0-1.325.11l-1.79 1.78c-.363.353-.41.919-.111 1.326l1.011 1.375a8.992 8.992 0 0 0-.505 1.214l-1.77.314a1.01 1.01 0 0 0-.86 1.01v2.529c-.005.505.36.936.86 1.012l1.658.283c.133.418.302.824.506 1.213l-1.012 1.376c-.299.407-.25.973.112 1.325l1.79 1.79c.352.363.917.41 1.325.11l1.365-1.01c.392.204.802.372 1.224.506l.273 1.658c.076.498.507.865 1.011.86h2.528c.505.005.937-.362 1.012-.86l.344-1.628a7.666 7.666 0 0 0 1.224-.506l1.365 1.012c.407.298.973.25 1.325-.112l1.79-1.79c.363-.352.41-.917.112-1.325l-1.012-1.376c.204-.388.373-.795.506-1.213l1.658-.283a1.01 1.01 0 0 0 .86-1.012v-2.558a1.01 1.01 0 0 0-.83-1.011Zm-.374 3.368-1.871.304a.647.647 0 0 0-.496.455 6.634 6.634 0 0 1-.688 1.658.618.618 0 0 0 0 .668l1.092 1.547-1.537 1.537-1.537-1.103v.001a.615.615 0 0 0-.668 0 6.71 6.71 0 0 1-1.668.688.635.635 0 0 0-.445.495l-.313 1.871h-2.135l-.313-1.87a.635.635 0 0 0-.446-.496 6.685 6.685 0 0 1-1.668-.718.615.615 0 0 0-.667 0l-1.538 1.103-1.537-1.508 1.102-1.547a.636.636 0 0 0 0-.668 6.638 6.638 0 0 1-.688-1.658.636.636 0 0 0-.495-.456l-1.87-.303v-2.174l1.87-.314a.616.616 0 0 0 .495-.455 7.676 7.676 0 0 1 .719-1.639.618.618 0 0 0 0-.667l-1.133-1.567 1.537-1.538 1.547 1.113a.638.638 0 0 0 .668 0 6.838 6.838 0 0 1 1.659-.688.607.607 0 0 0 .445-.495l.313-1.871h2.174l.313 1.87h.001c.037.24.211.434.445.496.58.155 1.139.387 1.659.688a.638.638 0 0 0 .667 0l1.547-1.113 1.538 1.538-1.103 1.547a.619.619 0 0 0 0 .668c.298.521.53 1.078.688 1.658.061.237.255.415.496.455l1.87.314-.03 2.174Z" fill="#169FCC"/><path d="M63.731 54.426a4.57 4.57 0 1 0-.001 9.14 4.57 4.57 0 0 0 .002-9.14Zm0 7.898a3.336 3.336 0 0 1-3.347-3.334 3.336 3.336 0 1 1 6.674.007 3.339 3.339 0 0 1-3.327 3.327Z" fill="#169FCC"/></svg>