<svg xmlns="http://www.w3.org/2000/svg" width="16" height="16" viewBox="0 0 16 16">
  <title>Support</title>
  <path fill="#A3BBCC" fill-rule="evenodd" d="M3 12v1c0 .5522847.4477153 1 1 1h4c.5522847 0 1 .4477153 1 1s-.4477153 1-1 1H4c-1.6568542 0-3-1.3431458-3-3v-1c-.5522847 0-1-.4477153-1-1V7c0-.5522847.4477153-1 1-1h.0708889C1.5561185 2.6077059 4.4735281 0 8 0s6.4438815 2.6077059 6.9291111 6H15c.5522847 0 1 .4477153 1 1v4c0 .5522847-.4477153 1-1 1h-2c-.5522847 0-1-.4477153-1-1V7c0-.5188639.3951689-.9454312.9009623-.9951576C12.439565 3.7201899 10.4206685 2 8 2 5.5793315 2 3.560435 3.7201899 3.0990377 6.0048424 3.6048311 6.0545688 4 6.4811361 4 7v4c0 .5522847-.4477153 1-1 1z"/>
</svg>
