<svg viewBox="0 0 24 24" fill="none" xmlns="http://www.w3.org/2000/svg">
  <title>Help</title>
  <path d="M12 2a10.01 10.01 0 0 1 0 20 10 10 0 0 1 0-20Zm-.18 12h.79c.23 0 .35-.1.4-.32.05-.21.1-.42.18-.62.15-.32.43-.5.72-.68 1.18-.74 1.87-1.75 1.7-3.2-.12-.91-.55-1.61-1.32-2.1a4.98 4.98 0 0 0-3.91-.3c-1.07.4-1.72 1.13-1.8 2.31-.01.21.1.37.32.38.52.01 1.04.03 1.57.03.25 0 .42-.14.5-.38.14-.51.51-.72 1.01-.77.57-.04 1.08.3 1.2.8.2.75.03 1.42-.56 1.94-.35.31-.73.58-1.1.87-.49.4-.83.9-.87 1.56-.02.31.1.48.42.48h.75Zm-.02 1.56h-.67c-.3 0-.52.22-.52.53v.8c0 .35.22.57.56.57h1.27c.32 0 .53-.2.55-.53a8.8 8.8 0 0 0 0-.85c-.02-.33-.23-.52-.57-.53h-.62Z" fill="#A3BBCC"/>
</svg>
