<svg width="14" height="14" viewBox="0 0 14 14" fill="none" xmlns="http://www.w3.org/2000/svg">
 <title>Check</title>
 <path fill="#A3BBCC" d="M6.10038 8.08358L4.70038 6.68358C4.56705 6.55025 4.40598 6.48358 4.21718 6.48358C4.02838 6.48358 3.86732 6.55025 3.73398 6.68358C3.58945 6.82812 3.51718 6.99772 3.51718 7.19238C3.51718 7.38652 3.58385 7.55025 3.71718 7.68358L5.58358 9.55078C5.72812 9.69478 5.89478 9.76678 6.08358 9.76678C6.27238 9.76678 6.43905 9.69478 6.58358 9.55078L10.3004 5.83398C10.4225 5.71132 10.4532 5.56412 10.3924 5.39238C10.3311 5.22012 10.3004 5.04492 10.3004 4.86678C10.1671 4.73345 10.0031 4.66678 9.80838 4.66678C9.61425 4.66678 9.45052 4.73345 9.31718 4.86678L6.10038 8.08358ZM7.00038 13.6668C6.07825 13.6668 5.21158 13.4919 4.40038 13.142C3.58918 12.7921 2.88358 12.3172 2.28358 11.7172C1.68358 11.1172 1.20865 10.4116 0.858784 9.60038C0.508918 8.78918 0.333984 7.92252 0.333984 7.00038C0.333984 6.07825 0.508918 5.21158 0.858784 4.40038C1.20865 3.58918 1.68358 2.88358 2.28358 2.28358C2.88358 1.68358 3.58918 1.20865 4.40038 0.858784C5.21158 0.508918 6.07825 0.333984 7.00038 0.333984C7.92252 0.333984 8.78918 0.508918 9.60038 0.858784C10.4116 1.20865 11.1172 1.68358 11.7172 2.28358C12.3172 2.88358 12.7921 3.58918 13.142 4.40038C13.4919 5.21158 13.6668 6.07825 13.6668 7.00038C13.6668 7.92252 13.4919 8.78918 13.142 9.60038C12.7921 10.4116 12.3172 11.1172 11.7172 11.7172C11.1172 12.3172 10.4116 12.7921 9.60038 13.142C8.78918 13.4919 7.92252 13.6668 7.00038 13.6668Z" />
</svg>
