<svg xmlns="http://www.w3.org/2000/svg" width="16" height="16" viewBox="0 0 16 16">
  <title>Settings</title>
  <path fill="#A3BBCC" fill-rule="evenodd" d="M11.4765344 3.1092521l1.4732131-1.4732131 1.4142135 1.4142135-1.4732131 1.4732131c.514815.7229326.8733467 1.5648778 1.0262937 2.4765344H16v2h-2.0829584c-.152947.9116566-.5114787 1.7536018-1.0262937 2.4765344l1.4732131 1.4732131-1.4142135 1.4142135-1.4732131-1.4732131c-.7229326.514815-1.5648778.8733467-2.4765344 1.0262937V16H7v-2.0829584c-.9116566-.152947-1.7536018-.5114787-2.4765344-1.0262937L3.0502525 14.363961 1.636039 12.9497475l1.4732131-1.4732131C2.5944371 10.7536018 2.2359054 9.9116566 2.0829584 9H0V7h2.0829584c.152947-.9116566.5114787-1.7536018 1.0262937-2.4765344L1.636039 3.0502525 3.0502525 1.636039l1.4732131 1.4732131C5.2463982 2.5944371 6.0883434 2.2359054 7 2.0829584V0h2v2.0829584c.9116566.152947 1.7536018.5114787 2.4765344 1.0262937zM8 12c2.209139 0 4-1.790861 4-4s-1.790861-4-4-4-4 1.790861-4 4 1.790861 4 4 4z"/>
</svg>
