<svg xmlns="http://www.w3.org/2000/svg" width="24" height="21" viewBox="0 0 24 21">
  <title>Dashboard</title>
  <path fill="#A3BBCC" fill-rule="nonzero" d="M13 10l3-3c.6902336-.73713266 1.4429032-1.26058218 2-1 .2605822.55709682-.2628673 1.30976636-1 2l-3 3c.1531248.4707586.1875961.6844547 0 1 .1875961 1.0625747-.7498292 2-2 2-1.0625747 0-2-.9374253-2-2 0-1.2501708.9374253-2.1875961 2-2 .3155453-.1875961.5292414-.1531248 1 0zm8 10c-.08276.0634515-.7131836.1223062-1 0-.5634515-.58276-.6223062-1.2131836 0-2 1.1963422-1.4063656 2-3.6213758 2-6 0-5.5228475-4.4771525-10-10-10S2 6.4771525 2 12c0 2.3848064.80099865 4.5939865 2 6 .62209487.7857069.56386353 1.4161884 0 2-.28570688.1220949-.91618845.0638635-1 0-2.03512593-2.4863139-3-5.1474677-3-8C0 5.372583 5.372583 0 12 0s12 5.372583 12 12c0 2.8461786-.967377 5.5124254-3 8zM9 16h6c.5522847 0 1 .4477153 1 1s-.4477153 1-1 1H9c-.55228475 0-1-.4477153-1-1s.44771525-1 1-1z"/>
</svg>
