<svg fill="none" xmlns="http://www.w3.org/2000/svg" viewBox="0 0 96 96">
  <title>State No Data</title>
<circle opacity=".5" cx="48" cy="48.294" r="47" stroke="#B6B6BD" stroke-linecap="round" stroke-dasharray="4 4"/><path d="m7 42.5.376-.33a.5.5 0 0 0-.831.123L7 42.5Zm14 16-.376.33a.5.5 0 0 0 .73.024L21 58.5Zm11-11 .362-.345a.5.5 0 0 0-.716-.009L32 47.5Zm10.5 11-.362.345a.5.5 0 0 0 .62.084L42.5 58.5ZM55 51l.224-.447a.5.5 0 0 0-.481.018L55 51Zm9 4.5-.224.447a.5.5 0 0 0 .62-.142L64 55.5Zm10-13 .024-.5a.5.5 0 0 0-.42.195L74 42.5ZM2.872 52.79a.5.5 0 0 0-.91-.414l.91.414Zm-.077-2.247a.5.5 0 0 0 .91.414l-.91-.414Zm1.744-1.42a.5.5 0 0 0-.91-.413l.91.414Zm-.078-2.247a.5.5 0 0 0 .91.414l-.91-.414Zm1.744-1.42a.5.5 0 0 0-.91-.413l.91.414Zm-.077-2.246a.5.5 0 0 0 .91.414l-.91-.414Zm1.196.42a.5.5 0 0 0 .752-.66l-.752.66Zm2.152.94a.5.5 0 0 0-.752.66l.752-.66Zm.648 2.26a.5.5 0 0 0 .752-.66l-.752.66Zm2.152.94a.5.5 0 0 0-.752.66l.752-.66Zm.648 2.26a.5.5 0 0 0 .752-.66l-.752.66Zm2.152.94a.5.5 0 0 0-.752.66l.752-.66Zm.648 2.26a.5.5 0 0 0 .752-.66l-.752.66Zm2.152.94a.5.5 0 0 0-.752.66l.752-.66Zm.648 2.26a.5.5 0 0 0 .752-.66l-.752.66Zm2.152.94a.5.5 0 0 0-.752.66l.752-.66Zm1.365.796a.5.5 0 0 0-.707-.707l.707.707Zm.668-2.082a.5.5 0 0 0 .707.707l-.707-.707Zm2.082-.668a.5.5 0 0 0-.707-.707l.707.707Zm.668-2.082a.5.5 0 0 0 .707.707l-.707-.707Zm2.082-.668a.5.5 0 0 0-.707-.707l.707.707Zm.668-2.082a.5.5 0 0 0 .707.707l-.707-.707Zm2.082-.668a.5.5 0 0 0-.707-.707l.707.707Zm.668-2.082a.5.5 0 0 0 .707.707l-.707-.707Zm1.336.699a.5.5 0 1 0 .723-.69l-.723.69Zm2.035.684a.5.5 0 1 0-.723.69l.723-.69Zm.59 2.066a.5.5 0 1 0 .723-.69l-.723.69Zm2.035.684a.5.5 0 1 0-.723.69l.723-.69Zm.59 2.066a.5.5 0 1 0 .723-.69l-.723.69Zm2.035.684a.5.5 0 1 0-.723.69l.723-.69Zm.59 2.066a.5.5 0 1 0 .723-.69l-.723.69Zm2.035.684a.5.5 0 1 0-.723.69l.723-.69Zm1.334.993a.5.5 0 1 0-.515-.858l.514.858Zm1.047-1.795a.5.5 0 1 0 .515.858l-.514-.858Zm2.078-.08a.5.5 0 1 0-.515-.858l.514.858Zm1.047-1.795a.5.5 0 1 0 .515.858l-.514-.858Zm2.078-.08a.5.5 0 1 0-.515-.858l.514.858Zm1.047-1.795a.5.5 0 1 0 .515.858l-.514-.858Zm2.078-.08a.5.5 0 1 0-.515-.858l.514.858Zm1.047-1.795a.5.5 0 1 0 .515.858l-.514-.858Zm1.565.782a.5.5 0 1 0 .448-.894l-.448.894Zm1.948-.144a.5.5 0 1 0-.448.894l.448-.894Zm1.052 1.644a.5.5 0 1 0 .448-.894l-.448.894Zm1.948-.144a.5.5 0 1 0-.448.894l.448-.894Zm1.052 1.644a.5.5 0 1 0 .448-.894l-.448.894Zm1.948-.144a.5.5 0 1 0-.448.894l.448-.894Zm1.547.314a.5.5 0 0 0-.792-.61l.792.61Zm.458-2.234a.5.5 0 0 0 .792.61l-.792-.61Zm2.042-1.016a.5.5 0 0 0-.792-.61l.792.61Zm.458-2.234a.5.5 0 0 0 .792.61l-.792-.61Zm2.042-1.016a.5.5 0 0 0-.792-.61l.792.61Zm.458-2.234a.5.5 0 0 0 .792.61l-.792-.61Zm2.042-1.016a.5.5 0 0 0-.792-.61l.792.61Zm.458-2.234a.5.5 0 0 0 .792.61l-.792-.61Zm2.022.041a.5.5 0 1 0 .048-.998l-.048.998Zm2.098-.898a.5.5 0 1 0-.048.998l.048-.998Zm2.002 1.098a.5.5 0 1 0 .048-.998l-.048.998Zm2.098-.898a.5.5 0 1 0-.048.998l.048-.998Zm2.002 1.098a.5.5 0 1 0 .048-.998l-.048.998Zm2.098-.898a.5.5 0 1 0-.048.998l.048-.998Zm2.002 1.098a.5.5 0 1 0 .048-.998l-.048.998Zm2.098-.898a.5.5 0 1 0-.048.998l.048-.998Zm2.002 1.098a.5.5 0 1 0 .048-.998l-.048.998Zm2.098-.898a.5.5 0 1 0-.048.998l.048-.998ZM2.455 53.707l.417-.917-.91-.414-.417.917.91.414Zm1.25-2.75.834-1.833-.91-.414-.834 1.833.91.414Zm1.667-3.667.833-1.833-.91-.414-.834 1.833.91.414Zm1.667-3.666.416-.917-.91-.414-.417.917.91.414Zm-.415-.795.7.8.752-.658-.7-.8-.752.658Zm2.1 2.4 1.4 1.6.752-.658-1.4-1.6-.752.658Zm2.8 3.2 1.4 1.6.752-.658-1.4-1.6-.752.658Zm2.8 3.2 1.4 1.6.752-.658-1.4-1.6-.752.658Zm2.8 3.2 1.4 1.6.752-.658-1.4-1.6-.752.658Zm2.8 3.2.7.8.752-.658-.7-.8-.752.658Zm1.43.825.687-.688-.707-.707-.688.687.708.708Zm2.062-2.063 1.375-1.375-.707-.707-1.375 1.375.707.707Zm2.75-2.75 1.375-1.375-.707-.707-1.375 1.375.707.707Zm2.75-2.75 1.375-1.375-.707-.707-1.375 1.375.707.707Zm2.75-2.75.688-.687-.708-.708-.687.688.707.707Zm-.028-.696.657.688.723-.69-.656-.688-.724.69Zm1.97 2.063 1.312 1.375.723-.69-1.313-1.376-.723.69Zm2.624 2.75 1.313 1.375.723-.69-1.313-1.376-.723.69Zm2.625 2.75 1.313 1.375.723-.69-1.313-1.376-.723.69Zm2.625 2.75.656.687.724-.69-.657-.688-.723.69Zm1.275.77.782-.468-.515-.858-.781.47.514.857Zm2.344-1.405 1.563-.938-.515-.858-1.563.938.515.858Zm3.125-1.876 1.563-.937-.515-.858-1.563.938.515.858Zm3.125-1.874 1.563-.938-.515-.858-1.563.938.515.858Zm3.125-1.876.781-.468-.514-.858-.782.469.515.858Zm.3-.45.75.375.448-.894-.75-.375-.448.894Zm2.25 1.125 1.5.75.448-.894-1.5-.75-.448.894Zm3 1.5 1.5.75.448-.894-1.5-.75-.448.894Zm3 1.5.75.375.448-.894-.75-.375-.448.894Zm1.37.233.625-.813-.792-.61-.625.813.792.61Zm1.875-2.438 1.25-1.625-.792-.61-1.25 1.626.792.61Zm2.5-3.25 1.25-1.625-.792-.61-1.25 1.626.792.61Zm2.5-3.25 1.25-1.625-.792-.61-1.25 1.626.792.61Zm2.5-3.25.625-.812-.792-.61-.625.813.792.61Zm.205-.618 1.025.05.048-.998-1.025-.05-.048.998Zm3.075.15 2.05.1.048-.998-2.05-.1-.048.998Zm4.1.2 2.05.1.048-.998-2.05-.1-.048.998Zm4.1.2 2.05.1.048-.998-2.05-.1-.048.998Zm4.1.2 2.05.1.048-.998-2.05-.1-.048.998Zm4.1.2 1.025.05.048-.998-1.025-.05-.048.998Z" fill="#91E1FC"/><path d="m15 37 .42-.272a.5.5 0 0 0-.821-.026L15 37Zm12 18.5-.42.272a.5.5 0 0 0 .693.147L27 55.5Zm20-13 .467-.18a.5.5 0 0 0-.74-.24l.273.42ZM54.5 62l-.467.18a.5.5 0 0 0 .94-.019L54.5 62ZM63 37l.317-.387a.5.5 0 0 0-.79.226L63 37Zm11 9-.317.387a.5.5 0 0 0 .438.098L74 46Zm14-3.5.447-.224a.5.5 0 0 0-.568-.261L88 42.5ZM3.051 53.923a.5.5 0 0 0-.802-.596l.802.596Zm.498-2.346a.5.5 0 0 0 .802.596l-.802-.596Zm2.102-1.154a.5.5 0 0 0-.802-.596l.802.596Zm.498-2.346a.5.5 0 0 0 .802.596l-.802-.596Zm2.102-1.154a.5.5 0 0 0-.802-.596l.802.596Zm.498-2.346a.5.5 0 0 0 .802.596l-.802-.596Zm2.102-1.154a.5.5 0 0 0-.802-.596l.802.596Zm.498-2.346a.5.5 0 0 0 .802.596l-.802-.596Zm2.102-1.154a.5.5 0 0 0-.802-.596l.802.596Zm.498-2.346a.5.5 0 0 0 .802.596l-.802-.596Zm1.132.466a.5.5 0 1 0 .838-.544l-.838.544Zm1.838.997a.5.5 0 1 0-.838.545l.838-.545Zm.162 2.086a.5.5 0 0 0 .838-.544l-.838.544Zm1.838.998a.5.5 0 0 0-.838.544l.838-.544Zm.162 2.086a.5.5 0 1 0 .838-.545l-.838.545Zm1.838.997a.5.5 0 1 0-.838.544l.838-.544Zm.162 2.086a.5.5 0 1 0 .838-.544l-.838.544Zm1.838.997a.5.5 0 1 0-.838.545l.838-.545Zm.162 2.086a.5.5 0 0 0 .838-.544l-.838.544Zm1.838.998a.5.5 0 0 0-.838.544l.838-.544Zm.162 2.086a.5.5 0 1 0 .838-.545l-.838.545Zm1.838.997a.5.5 0 1 0-.838.544l.838-.544Zm1.187.92a.5.5 0 0 0-.545-.838l.545.839Zm1.121-1.921a.5.5 0 0 0 .546.838l-.546-.838Zm2.212-.245a.5.5 0 0 0-.545-.839l.545.839Zm1.122-1.922a.5.5 0 0 0 .545.839l-.545-.839Zm2.212-.245a.5.5 0 0 0-.546-.838l.546.838Zm1.121-1.922a.5.5 0 0 0 .545.839l-.545-.839Zm2.212-.244a.5.5 0 0 0-.545-.839l.545.839Zm1.121-1.922a.5.5 0 0 0 .546.838l-.546-.838Zm2.212-.245a.5.5 0 0 0-.545-.839l.545.839Zm1.122-1.922a.5.5 0 0 0 .545.839l-.545-.839Zm2.212-.245a.5.5 0 0 0-.546-.838l.546.838Zm1.121-1.922a.5.5 0 0 0 .545.839l-.545-.839Zm1.014 1.032a.5.5 0 0 0 .934-.359l-.934.36Zm1.684 1.591a.5.5 0 0 0-.934.36l.934-.36Zm-.184 2.31a.5.5 0 0 0 .934-.36l-.934.36Zm1.684 1.59a.5.5 0 0 0-.934.36l.934-.36Zm-.184 2.31a.5.5 0 0 0 .934-.36l-.934.36Zm1.684 1.59a.5.5 0 0 0-.934.36l.934-.36Zm-.184 2.31a.5.5 0 0 0 .934-.36l-.934.36Zm1.684 1.59a.5.5 0 0 0-.934.36l.934-.36Zm-.184 2.31a.5.5 0 0 0 .934-.36l-.934.36Zm1.684 1.59a.5.5 0 0 0-.934.36l.934-.36Zm.685.423a.5.5 0 0 0-.947-.322l.947.322Zm-.34-2.108a.5.5 0 0 0 .947.322l-.947-.322Zm1.554-1.463a.5.5 0 1 0-.947-.322l.947.322Zm-.34-2.108a.5.5 0 0 0 .947.322l-.946-.322Zm1.554-1.464a.5.5 0 0 0-.946-.322l.947.322Zm-.34-2.107a.5.5 0 1 0 .948.322l-.947-.322Zm1.555-1.464a.5.5 0 0 0-.947-.322l.947.322Zm-.34-2.108a.5.5 0 0 0 .947.322l-.947-.322Zm1.554-1.464a.5.5 0 1 0-.947-.322l.947.322Zm-.34-2.107a.5.5 0 0 0 .947.322l-.947-.322Zm1.554-1.464a.5.5 0 0 0-.946-.322l.946.322Zm-.34-2.108a.5.5 0 1 0 .947.322l-.946-.322Zm1.555-1.463a.5.5 0 0 0-.947-.322l.947.322Zm-.34-2.108a.5.5 0 0 0 .947.322l-.947-.322Zm1.148.218a.5.5 0 0 0 .633-.775l-.633.775Zm2.008.35a.5.5 0 0 0-.633.775l.633-.775Zm.742 1.9a.5.5 0 0 0 .633-.775l-.633.775Zm2.008.35a.5.5 0 0 0-.633.775l.633-.775Zm.742 1.9a.5.5 0 0 0 .633-.775l-.633.775Zm2.008.35a.5.5 0 0 0-.633.775l.633-.775Zm.742 1.9a.5.5 0 0 0 .633-.775l-.633.775Zm2.008.35a.5.5 0 0 0-.633.775l.633-.775Zm1.367 1.216a.5.5 0 0 0-.242-.97l.242.97Zm1.508-1.407a.5.5 0 0 0 .242.97l-.242-.97Zm1.992.532a.5.5 0 0 0-.242-.97l.242.97Zm1.508-1.407a.5.5 0 0 0 .242.97l-.242-.97Zm1.992.532a.5.5 0 0 0-.242-.97l.242.97Zm1.508-1.407a.5.5 0 0 0 .242.97l-.242-.97Zm1.992.532a.5.5 0 0 0-.242-.97l.242.97Zm1.508-1.407a.5.5 0 0 0 .242.97l-.242-.97Zm1.05 1.49a.5.5 0 1 0 .894-.446l-.895.447Zm1.894 1.553a.5.5 0 1 0-.895.447l.895-.447Zm.105 2.447a.5.5 0 0 0 .894-.447l-.894.447Zm1.894 1.552a.5.5 0 0 0-.894.447l.894-.447Zm.105 2.447a.5.5 0 1 0 .895-.447l-.895.447Zm1.895 1.552a.5.5 0 1 0-.895.447l.895-.447ZM2.4 54.798l.65-.875-.802-.596-.65.875.802.596Zm1.95-2.625 1.3-1.75-.802-.596-1.3 1.75.802.596Zm2.6-3.5 1.3-1.75-.802-.596-1.3 1.75.802.596Zm2.6-3.5 1.3-1.75-.802-.596-1.3 1.75.802.596Zm2.6-3.5 1.3-1.75-.802-.596-1.3 1.75.802.596Zm2.6-3.5.65-.875-.802-.596-.65.875.802.596Zm-.17-.9.5.77.838-.544-.5-.771-.838.544Zm1.5 2.312 1 1.541.838-.544-1-1.542-.838.545Zm2 3.083 1 1.542.838-.545-1-1.541-.838.544Zm2 3.083 1 1.542.838-.544-1-1.542-.838.544Zm2 3.084 1 1.541.838-.544-1-1.542-.838.545Zm2 3.083 1 1.542.838-.545-1-1.541-.838.544Zm2 3.083.5.771.838-.544-.5-.77-.838.543Zm1.192.918.833-.541-.545-.839-.834.542.546.838Zm2.5-1.625 1.666-1.083-.545-.839-1.666 1.084.544.838Zm3.333-2.166 1.666-1.084-.544-.838-1.667 1.083.545.839Zm3.333-2.167 1.667-1.083-.545-.839-1.667 1.083.545.839Zm3.334-2.167 1.666-1.083-.545-.839-1.666 1.084.544.838Zm3.333-2.166 1.666-1.084-.544-.838-1.667 1.083.545.839Zm3.333-2.167.834-.542-.546-.838-.833.541.545.839Zm.094-.782.375.975.934-.359-.375-.974-.934.358Zm1.125 2.925.75 1.95.934-.358-.75-1.95-.934.358Zm1.5 3.9.75 1.95.934-.358-.75-1.95-.934.358Zm1.5 3.9.75 1.95.934-.358-.75-1.95-.934.358Zm1.5 3.9.75 1.95.934-.358-.75-1.95-.934.358Zm1.5 3.9.375.975.934-.358-.375-.975-.934.359Zm1.315.957.304-.893-.947-.322-.303.893.946.322Zm.911-2.679.607-1.785-.947-.322-.607 1.785.947.322Zm1.214-3.571.608-1.786-.947-.322-.607 1.786.946.322Zm1.215-3.572.607-1.785-.947-.322-.607 1.786.947.322Zm1.214-3.57.607-1.787-.947-.322-.607 1.786.947.322Zm1.214-3.572.607-1.786-.946-.322-.608 1.786.947.322Zm1.215-3.572.607-1.785-.947-.322-.607 1.785.947.322Zm1.214-3.571.303-.893-.946-.322-.304.893.947.322Zm-.487-.667.688.563.633-.775-.687-.562-.634.774Zm2.063 1.688 1.375 1.124.633-.773L65.38 38.3l-.633.775Zm2.75 2.25 1.375 1.124.633-.773-1.375-1.126-.633.775Zm2.75 2.25 1.375 1.124.633-.773L70.88 42.8l-.633.775Zm2.75 2.25.687.562.634-.774-.688-.563-.633.775Zm1.125.66.875-.219-.242-.97-.875.219.242.97Zm2.625-.656 1.75-.438-.242-.97-1.75.438.242.97Zm3.5-.875 1.75-.438-.242-.97-1.75.438.242.97Zm3.5-.875 1.75-.438-.242-.97-1.75.438.242.97Zm3.5-.875.875-.219-.242-.97-.875.219.242.97Zm.307-.48.065.13.016.032.016.032.032.064.032.064c.01.022.02.041.032.063l.004.008c.015.032-.012-.024.003.008l.008.016.016.031.004.008.004.008v.002l.002.002.002.004v.002l.002.002a.14.14 0 0 0 .002.003l.008.016.001.004a.148.148 0 0 1 .002.004l.004.008.008.016.004.007.002.004.001.002.001.002a.756.756 0 0 1 .008.016l.002.004c0 .002 0 .001.002.003l.002.004v.002l.002.002c.018.037-.011-.021.007.016l.004.008.004.007.016.031.03.062.016.03.015.031.03.062c.01.018 0-.003.008.015l.008.015v.002a.034.034 0 0 0 .003.004v.002c.008.013-.002-.006.005.007v.002l.001.002.001.002.001.002c.01.02-.007-.014.004.007l.015.03.015.03.008.016.007.015.015.03.895-.447-.001-.002-.001-.002-.001-.002v-.002l-.003-.004-.002-.003c-.013-.026.01.018-.003-.008l-.001-.002-.001-.002-.001-.002-.001-.001-.015-.03-.001-.002-.001-.002-.001-.002-.001-.002-.002-.004v-.002c-.001 0-.002 0-.002-.002l-.007-.015-.004-.007-.002-.004-.002-.004-.007-.015-.016-.03a2.87 2.87 0 0 1-.045-.092l-.124-.247-.016-.032-.008-.015-.004-.008-.004-.008-.031-.063-.032-.063-.004-.008-.004-.008-.008-.016-.004-.008-.002-.004-.002-.004-.008-.016-.032-.064c0-.003-.002-.006-.004-.008l-.004-.008-.004-.008-.004-.009-.016-.032-.002-.004V42.4l-.002-.002-.004-.008-.002-.004-.002-.004-.001-.002-.001-.002-.001-.002-.001-.002-.016-.032-.017-.033-.004-.008v-.002l-.002-.002v-.002l-.002-.002-.008-.017-.894.448Zm1.5 3 .008.017.009.017.008.016.008.017.009.017.002.004.002.004.002.004.002.004.017.033.065.132.13.259.008.016.008.016.004.008.004.008.004.008.004.008.008.016.004.008a.05.05 0 0 1 .002.004l.002.004.004.008.004.008.008.016.032.063.007.016.008.016.008.016.008.016.063.125.016.032.004.008a1994416821.019 1994416821.019 0 0 1 .011.023l.016.031.016.031.03.062.008.016.004.008.002.003.002.004.015.031.031.062.002.004.002.004.002.003.002.004.004.008.004.007.015.031.015.03.008.016.004.008.002.004.002.003.015.031.015.03.008.016.007.015c.005.01 0-.003.004.008l.002.003.002.004.008.015.007.016.004.007.004.008.015.03.007.015.008.015.008.015.007.015.03.06.06.121.03.06.03.06.06.119.894-.447-.06-.12-.003-.007a.067.067 0 0 0-.002-.004l-.002-.004-.007-.014a4.156 4.156 0 0 1-.015-.03l-.004-.008-.002-.004-.002-.003c0-.003-.006-.013-.007-.015l-.015-.03a67.306 67.306 0 0 0-.06-.12l-.004-.008-.004-.007-.007-.015-.002-.004a.067.067 0 0 1-.002-.004l-.004-.008-.007-.015-.03-.06-.123-.244c0-.003-.013-.028-.015-.03l-.004-.008-.002-.004-.001-.004-.008-.015-.031-.062-.031-.062-.008-.015-.007-.016-.016-.031-.004-.008-.002-.004-.002-.004-.008-.015-.015-.031-.031-.063c-.004-.008-.06-.117-.063-.126a1.163 1.163 0 0 1-.008-.015l-.004-.008-.002-.004a.05.05 0 0 1-.002-.004l-.008-.016-.002-.004-.002-.004-.004-.008-.016-.032-.004-.008-.004-.008-.002-.004-.002-.003-.004-.008-.004-.008-.002-.004-.002-.004-.008-.016-.016-.032-.008-.016-.004-.008a.075.075 0 0 1-.004-.008l-.008-.016-.008-.016-.13-.26-.003-.008-.002-.004-.002-.004-.005-.008-.004-.008-.008-.017-.008-.016-.016-.033c-.009-.016.003.008-.005-.008a.15.15 0 0 0-.002-.005l-.002-.004-.008-.016a10.195 10.195 0 0 1-.017-.033l-.002-.004-.002-.005-.002-.004a1.284 1.284 0 0 1-.01-.02l-.004-.009c-.016-.032.011.024-.005-.008l-.008-.017-.004-.008a.155.155 0 0 0-.002-.004l-.002-.004-.004-.008-.002-.005-.002-.004-.895.447Zm2 4 .015.03.014.029.015.03.015.03.06.12.12.24.123.244.123.247.062.125.002.004.002.004.004.008.002.003.002.004.002.004.002.004.016.032.015.031.008.016.008.016.016.031.008.016.008.016.008.016.008.016.004.008.004.008.008.016.004.007.004.008c.007.014 0 .003.008.016l.016.032a.795.795 0 0 1 .008.016l.008.016.016.032.064.13.008.016.004.008.004.008.017.032.016.033.016.033.066.131.066.133.895-.447-.067-.133c-.02-.04.012.023-.008-.017l-.008-.016c-.002-.004-.014-.03-.017-.033l-.016-.033-.016-.033-.017-.032-.004-.008-.004-.009-.008-.016-.016-.032a.075.075 0 0 0-.002-.004l-.002-.004a.075.075 0 0 1-.002-.005l-.002-.004-.008-.016-.017-.032a.075.075 0 0 0-.002-.004c0-.002 0-.003-.002-.004l-.004-.008-.004-.008-.002-.004-.002-.005-.008-.016-.008-.016-.004-.008-.002-.004-.002-.004-.008-.016-.002-.004-.002-.004-.004-.008a1.193 1.193 0 0 1-.008-.016l-.016-.032-.032-.064-.032-.063-.016-.032-.015-.032-.008-.015-.002-.004-.002-.004-.004-.008-.004-.008-.002-.004a.05.05 0 0 1-.002-.004l-.008-.016-.004-.008-.004-.007-.008-.016-.007-.016-.002-.004-.002-.004-.002-.003-.002-.004-.063-.125-.004-.008c-.008-.017.005.01-.003-.008a1.125 1.125 0 0 0-.008-.015l-.016-.031-.03-.062-.062-.123-.122-.244-.004-.008-.002-.003a.138.138 0 0 0-.001-.004l-.002-.004a.27.27 0 0 1-.006-.011l-.015-.03-.002-.004-.002-.004-.002-.004-.002-.004c-.017-.033.01.019-.007-.015l-.008-.015-.002-.003a.067.067 0 0 1-.002-.004l-.003-.008-.015-.03-.008-.015-.002-.004-.002-.003-.002-.004-.001-.004-.002-.004-.002-.003-.004-.008-.004-.008-.003-.007-.008-.015a.513.513 0 0 1-.004-.008l-.003-.007-.06-.12-.004-.007-.004-.008-.007-.015-.015-.03c-.015-.029.007.016-.008-.014a.133.133 0 0 1-.003-.008l-.004-.007-.015-.03-.894.447Zm2 3.998.12.243.008.015.008.016.015.03.016.031.015.03.062.125.063.126.064.127.002.004.002.004.004.008.004.008.004.008.008.016.004.008.002.004.002.004.004.008.004.008.004.008c0 .002 0 .003.002.004l.002.005.016.032.008.016.004.008.004.008.008.016.004.008.004.008.033.066.894-.448-.004-.008a.203.203 0 0 1-.004-.008l-.004-.008-.001-.002-.001-.002-.002-.004-.004-.008-.004-.008-.004-.009a.204.204 0 0 0-.004-.008l-.017-.032-.008-.016-.008-.016-.064-.129-.126-.253-.245-.49-.895.447Z" fill="#169FCC"/></svg>