<svg fill="none" xmlns="http://www.w3.org/2000/svg" viewBox="0 0 24 24">
<title>Bot</title>
<rect width="24" height="24" rx="12" fill="#A3BBCC"/><mask id="a" style="mask-type:alpha" maskUnits="userSpaceOnUse" x="2" y="2" width="20" height="20"><path fill="#D9D9D9" d="M2 2h20v20H2z"/></mask><g mask="url(#a)"><path d="M6 14a1.931 1.931 0 0 1-1.417-.583A1.931 1.931 0 0 1 4 12c0-.555.194-1.028.583-1.417C4.973 10.194 5.445 10 6 10V8.5c0-.417.146-.77.438-1.062A1.444 1.444 0 0 1 7.5 7H10c0-.555.194-1.028.583-1.417C10.973 5.194 11.445 5 12 5s1.028.194 1.417.583c.389.39.583.862.583 1.417h2.5c.417 0 .77.146 1.062.438.292.291.438.645.438 1.062V10c.555 0 1.028.194 1.417.583.389.39.583.862.583 1.417s-.194 1.028-.583 1.417c-.39.389-.862.583-1.417.583v3.5c0 .417-.146.77-.438 1.062A1.444 1.444 0 0 1 16.5 19h-9c-.417 0-.77-.146-1.062-.438A1.444 1.444 0 0 1 6 17.5V14Zm3.5-1.5a.962.962 0 0 0 .708-.292.962.962 0 0 0 .292-.708.962.962 0 0 0-.292-.708.962.962 0 0 0-.708-.292.962.962 0 0 0-.708.292.962.962 0 0 0-.292.708c0 .278.097.514.292.708.194.195.43.292.708.292Zm4.75 0a.962.962 0 0 0 .708-.292.962.962 0 0 0 .292-.708.962.962 0 0 0-.292-.708.962.962 0 0 0-.708-.292.962.962 0 0 0-.708.292.962.962 0 0 0-.292.708c0 .278.097.514.292.708.194.195.43.292.708.292ZM9 15.5h6V14H9v1.5Zm-1.5 2h9v-9h-9v9Z" fill="#fff"/></g></svg>