<svg xmlns="http://www.w3.org/2000/svg" viewBox="0 0 20 20"><defs><style>.cls-2{fill:#a3bbcc}</style><mask id="mask" width="19.23" height="19.23" x=".39" y=".87" maskUnits="userSpaceOnUse"><path id="a" d="M.39.87h19.23V20.1H.39V.87Z" class="cls-2"/></mask></defs><path d="M2.79 16.25c-.4 0-.74-.14-1.02-.43-.27-.27-.43-.64-.42-1.02 0-.4.14-.74.42-1.02.27-.27.63-.43 1.01-.42.13 0 .26.01.39.04l3.99-3.99c-.03-.13-.04-.26-.04-.39 0-.39.14-.73.43-1.01.28-.28.62-.42 1.02-.42s.74.14 1.02.42c.28.28.42.62.42 1.02 0 .07-.01.19-.04.38l2.54 2.54c.07-.01.13-.02.19-.03.13-.01.25-.01.38 0 .06 0 .12.02.19.03l2.54-2.54c-.03-.13-.04-.26-.04-.39 0-.39.14-.73.43-1.01.28-.28.62-.42 1.02-.42s.74.14 1.02.43c.28.28.42.62.42 1.02s-.14.74-.42 1.02c-.27.27-.63.43-1.01.42-.13 0-.26-.01-.39-.04l-2.54 2.54c.01.07.02.13.03.19v.2c0 .4-.14.73-.43 1.01-.28.28-.62.42-1.02.42s-.74-.14-1.02-.42c-.27-.27-.43-.63-.42-1.01 0-.13.01-.26.04-.39l-2.54-2.54c-.07.01-.13.02-.19.03h-.19c-.07 0-.19-.01-.38-.04l-3.99 3.99c.01.07.02.13.03.19s0 .12 0 .2c0 .4-.14.73-.42 1.01-.28.28-.62.42-1.02.42Zm.97-7.69-.46-.99-.99-.46.99-.46.46-.99.46.99.99.46-.99.46-.46.99Zm8.65 0-.74-1.66-1.66-.74 1.66-.74.74-1.66.74 1.66 1.66.74-1.66.74-.74 1.66Z" class="cls-2" style="mask:url(#mask)"/></svg>