<svg xmlns="http://www.w3.org/2000/svg" width="12" height="12" viewBox="0 0 12 12">
  <title>External Link</title>
  <path fill="#A3BBCC" fill-rule="evenodd" d="M8.24308 1.5C7.83269 1.5 7.5 1.16710138 7.5.75c0-.41421356.33823-.75.74308-.75h3.00568C11.6666 0 12 .336341 12 .75123866v3.00567786C12 4.1673102 11.6671 4.5 11.25 4.5c-.41421 0-.75-.3382314-.75-.74308348V2.625L6.53246 6.59254c-.28982.2898217-.76955.2953689-1.06202.0029022l-.06588-.0658844c-.29098-.2909742-.29117-.7679483.0029-1.0620178L9.375 1.5H8.24308zm-6.74753 0C.67089 1.5 0 2.1695784 0 2.99554521v7.50890959C0 11.3291147.66958 12 1.49555 12h7.5089C9.82911 12 10.5 11.3304216 10.5 10.5044548V6.75H9v3.75H1.5V3h3.75V1.5H1.49555z"/>
</svg>
