<svg width="24" height="24" viewBox="0 0 24 24" xmlns="http://www.w3.org/2000/svg">
  <title>Profile</title>
  <path d="M12 0c6.627417 0 12 5.372583 12 12s-5.372583 12-12 12S0 18.627417 0 12 5.372583 0 12 0zm.5 18h-1c-1.89844585 0-3.52231553 1.1756003-4.18333865 2.8385306C8.71442012 21.5798521 10.3081447 22 12 22c1.6918553 0 3.2855799-.4201479 4.6825277-1.1617979l.0613831.1617114C16.1261318 19.2521701 14.4592959 18 12.5 18zM12 2C6.4771525 2 2 6.4771525 2 12c0 3.041301 1.35767114 5.7655009 3.4999962 7.5995824C6.42573925 17.4804809 8.53997721 16 11 16h2c2.4600228 0 4.5742607 1.4804809 5.500341 3.5990697C20.6423289 17.7655009 22 15.041301 22 12c0-5.5228475-4.4771525-10-10-10zm0 2c2.209139 0 4 1.790861 4 4v2c0 2.209139-1.790861 4-4 4s-4-1.790861-4-4V8c0-2.209139 1.790861-4 4-4zm0 2c-1.0543618 0-1.9181651.81587779-1.9945143 1.85073766L10 8v2c0 1.1045695.8954305 2 2 2 1.0543618 0 1.9181651-.8158778 1.9945143-1.8507377L14 10V8c0-1.1045695-.8954305-2-2-2z" fill="#A3BBCC" fill-rule="evenodd"/>
</svg>
