<svg fill="none" xmlns="http://www.w3.org/2000/svg" viewBox="0 0 24 24"><rect width="24" height="24" rx="2" fill="#A3BBCC"/><path fill-rule="evenodd" clip-rule="evenodd" d="M6.5 14.44V6.5h11v6.94l-.97-.97a.75.75 0 0 0-1.06 0l-1.97 1.97-2.97-2.97a.75.75 0 0 0-1.06 0L6.5 14.44Zm10.97 1.09.03.029V17.5h-.941a.741.741 0 0 0-.029-.03l-1.97-1.97L16 14.06l1.47 1.47Zm-4.5.5 1.47 1.47H6.5v-.941l.03-.029L10 13.06l2.97 2.97ZM5 6a1 1 0 0 1 1-1h12a1 1 0 0 1 1 1v12a1 1 0 0 1-1 1H6a1 1 0 0 1-1-1V6Zm9.25 4.5a1.25 1.25 0 1 0 0-2.5 1.25 1.25 0 0 0 0 2.5Z" fill="#fff"/></svg>