<svg width="95" height="95" viewBox="0 0 95 95" fill="none" xmlns="http://www.w3.org/2000/svg">
  <title>State No Search Results</title>
<circle opacity="0.5" cx="48" cy="47.2937" r="47" stroke="#B6B6BD" stroke-width="0.6" stroke-linecap="round" stroke-dasharray="4 4"/>
<circle cx="46.6978" cy="47.6978" r="22.2842" stroke="#169FCC" stroke-width="1.17285"/>
<circle cx="46.6978" cy="47.6978" r="17.5928" stroke="#169FCC" stroke-width="1.17285"/>
<mask id="mask0_536_2029" style="mask-type:alpha" maskUnits="userSpaceOnUse" x="17" y="40" width="47" height="43">
<path fill-rule="evenodd" clip-rule="evenodd" d="M39.6401 73.6552H31.3959L25.6926 81.2525L24.3896 83H17V73.6784L23.8879 64.6756H26.5015L33.2376 58.7329L42.1787 69.6542L39.6401 73.6552ZM41.057 75.3366H32.4311L31.2679 76.846L33.8951 81.0526L33.6217 83H44.7658L45.5359 81.0526L41.057 75.3366ZM38.6035 50.2249L34.6248 57.3498L54.0366 80.8466L53.4825 83H62.3859L64 75.3571L43.2262 50.2179L38.6035 50.2249ZM52.051 57.8813L56.8659 53.8974V51.3664L55.1914 48.9994L56.4275 47.7044L46.7706 40L41.1392 44.64L39.2411 48.1713H43.9546L52.051 57.8813Z" fill="#B6B6BD"/>
</mask>
<g mask="url(#mask0_536_2029)">
<circle cx="46.6978" cy="47.6978" r="17.0064" fill="#E0E0E0"/>
</g>
<path d="M34.3828 47.6978C34.3828 40.8964 39.8964 35.3828 46.6978 35.3828" stroke="#91E1FC" stroke-width="1.17285" stroke-linecap="round"/>
<path d="M71.9141 61.1857L61.3584 71.7414" stroke="#91E1FC" stroke-width="1.17285"/>
<path d="M67.4485 56.4942L89.8736 78.9193C92.8508 81.8965 92.8508 86.7235 89.8736 89.7006V89.7006C86.8964 92.6778 82.0694 92.6778 79.0923 89.7006L57.1728 67.7812" stroke="#169FCC" stroke-width="1.17285"/>
</svg>