<svg width="32" height="32" viewBox="-2 -2 28 28" xmlns="http://www.w3.org/2000/svg">
  <title>Immunity</title>
  <path transform="rotate(-45 11.7 12)" d="M7.710000000000001,12a4,12 0 1,0 8,0a4,12 0 1,0 -8,0" stroke="#A3BBCC" stroke-width="2" fill="none"/>
  <path d="M3 5.3a2 2 0 100-4 2 2 0 000 4z" stroke="#A3BBCC" stroke-width="2" fill="none"/>
  <path transform="rotate(45 11.7 12)" d="M7.710000000000001,12a4,12 0 1,0 8,0a4,12 0 1,0 -8,0" stroke="#A3BBCC" stroke-width="2" fill="none"/>
  <path d="M21 5.3a2 2 0 100-4 2 2 0 000 4zM21 22.3a2 2 0 100-4 2 2 0 000 4zM3 22.3a2 2 0 100-4 2 2 0 000 4z" stroke="#A3BBCC" stroke-width="2" fill="none"/>
</svg>
