<svg width="12" height="16" viewBox="0 0 12 16" xmlns="http://www.w3.org/2000/svg">
  <title>Locked</title>
  <path d="M6 0c2.76142375 0 5 2.23857625 5 5v3h.5c.2761424 0 .5.22385763.5.5v7c0 .2761424-.2238576.5-.5.5H.5c-.27614237 0-.5-.2238576-.5-.5v-7c0-.27614237.22385763-.5.5-.5H1V5c0-2.76142375 2.23857625-5 5-5zm.5 11h-1c-.27614237 0-.5.2238576-.5.5v1c0 .2761424.22385763.5.5.5h1c.27614237 0 .5-.2238576.5-.5v-1c0-.2761424-.22385763-.5-.5-.5zM6 2C4.34314575 2 3 3.34314575 3 5v3h6V5c0-1.65685425-1.34314575-3-3-3z" fill="#A3BBCC" fill-rule="evenodd"/>
</svg>
