<svg viewBox="0 0 32 32" fill="none" xmlns="http://www.w3.org/2000/svg">
  <title>Notifications</title>
  <circle cx="16" cy="16" r="16" fill="#A3BBCC"/>
  <path fill="#A3BBCC" d="M8 11h16.37v10.03H8z"/>
  <path type="secondary" fill="#fff" d="M16.17 21.03h-7.3c-.45 0-.74-.21-.84-.62a.8.8 0 0 1-.03-.23v-6.36c0-.06.03-.15.08-.2l2.52-2.44c.14-.14.3-.18.49-.18h10.18c.21 0 .38.07.54.22l2.46 2.4c.07.06.1.13.1.23v6.3c0 .57-.31.89-.9.89l-7.3-.01Zm-3-7.41v.1a1.98 1.98 0 0 0 1.8 1.96c.79.06 1.6.05 2.4 0 .89-.05 1.57-.7 1.77-1.56.04-.16.05-.33.08-.5h3.49l-.03-.05-1.6-1.56a.34.34 0 0 0-.17-.05h-9.45a.35.35 0 0 0-.2.08l-1.54 1.49a.88.88 0 0 0-.08.1l3.53-.01Z"/>
</svg>
