<svg xmlns="http://www.w3.org/2000/svg" width="16" height="16" viewBox="0 0 16 16">
  <title>Information</title>
  <path fill="#A3BBCC" fill-rule="evenodd" d="M16 8c0-4.418278-3.58172-8-8-8S0 3.581722 0 8s3.58172 8 8 8 8-3.581722 8-8zm-1.5 0c0 3.5898509-2.91015 6.5-6.5 6.5S1.5 11.5898509 1.5 8 4.41015 1.5 8 1.5s6.5 2.9101491 6.5 6.5zM6 12h4v-1H9V7H6v1h1v3H6v1zm1-6.5046844C7 5.7740451 7.21404 6 7.50468 6h.99064C8.77405 6 9 5.785965 9 5.4953156v-.9906312C9 4.2259549 8.78596 4 8.49532 4h-.99064C7.22595 4 7 4.214035 7 4.5046844v.9906312z"/>
</svg>
