<svg viewBox="0 0 30 30" fill="none"
  xmlns="http://www.w3.org/2000/svg">
  <title>Team</title>
  <path d="M0 15C0 6.716 6.716 0 15 0c8.284 0 15 6.716 15 15 0 8.284-6.716 15-15 15-8.284 0-15-6.716-15-15Z" fill="#A3BBCC"/>
  <path d="M20.463 15.836h-2.975l1.872 1.744v4.508l4.216.017V18.56l-3.113-2.723ZM9.803 15.096l-3.627 2.723v4.27H17.64v-4.27l-3.396-2.723h-4.44ZM11.891 13.426a2.773 2.773 0 0 0 2.78-2.766 2.773 2.773 0 0 0-2.78-2.765 2.773 2.773 0 0 0-2.78 2.765 2.773 2.773 0 0 0 2.78 2.766ZM17.94 14.582a2.514 2.514 0 0 0 2.522-2.508 2.514 2.514 0 0 0-2.521-2.508 2.514 2.514 0 0 0-2.521 2.508 2.514 2.514 0 0 0 2.52 2.508Z" fill="#fff" type="secondary"/>
</svg>
