<svg xmlns="http://www.w3.org/2000/svg" width="16" height="16" fill="none"><mask id="a" width="16" height="16" x="0" y="0" maskUnits="userSpaceOnUse" style="mask-type:alpha"><path fill="#A3BBCC" d="M0 0h16v16H0z"/></mask><g mask="url(#a)"><path fill="#A3BBCC" d="M1.997 12.8c-.331 0-.614-.118-.847-.354a1.165 1.165 0 0 1-.35-.85c0-.33.117-.613.35-.846a1.15 1.15 0 0 1 .844-.35 1.485 1.485 0 0 1 .323.033l3.316-3.316a1.498 1.498 0 0 1-.033-.323c0-.328.118-.61.354-.843.235-.234.519-.351.85-.351.33 0 .613.118.846.353.233.235.35.517.35.847 0 .056-.011.161-.033.317l2.116 2.116c.056-.01.109-.02.159-.025a1.434 1.434 0 0 1 .316 0c.05.006.103.014.159.025l2.116-2.116a1.485 1.485 0 0 1-.033-.323c0-.328.118-.61.354-.843.235-.234.519-.351.85-.351.33 0 .613.118.846.354.233.235.35.519.35.85 0 .33-.117.613-.35.846a1.15 1.15 0 0 1-.844.35 1.496 1.496 0 0 1-.323-.033l-2.116 2.116c.01.056.02.109.025.159.005.05.008.104.008.164 0 .329-.118.61-.354.843-.235.234-.519.351-.85.351-.33 0-.613-.117-.846-.35a1.15 1.15 0 0 1-.35-.844 1.497 1.497 0 0 1 .033-.323L7.117 7.967c-.056.01-.109.02-.159.025-.05.005-.102.008-.158.008-.056 0-.161-.011-.317-.033l-3.316 3.316c.01.056.02.109.025.159.005.05.008.104.008.164 0 .329-.118.61-.353.843-.236.234-.52.351-.85.351ZM2.8 6.4l-.38-.82-.82-.38.82-.38L2.8 4l.38.82.82.38-.82.38-.38.82Zm7.2 0-.617-1.383L8 4.4l1.383-.617L10 2.4l.617 1.383L12 4.4l-1.383.617L10 6.4Z"/></g></svg>