<svg fill="none" xmlns="http://www.w3.org/2000/svg" viewBox="0 0 24 24">
<title>Hand Clock</title>
<path d="M18 11h-4c-.56 0-1-.45-1-1V4h2v5h3v2Z" fill="#A3BBCC"/><path d="M6.589 13a7.9 7.9 0 0 1-.59-3c0-4.42 3.58-8 8-8 4.41 0 8 3.58 8 8 0 1.89-.67 3.62-1.77 5h2.41c.85-1.48 1.35-3.18 1.35-5 0-5.52-4.49-10-10-10-5.52 0-10 4.48-10 10 0 1.045.16 2.05.46 3h2.14Z" fill="#A3BBCC"/><path d="M20.895 17.553c-.17-.34-.52-.56-.9-.56h-7.586l.29-.3c.3-.31.38-.77.18-1.154l-1-2c-.23-.45-.74-.66-1.22-.51L5.9 14.6a.999.999 0 0 0-.93-.64h-4c-.552 0-1 .44-1 1v8c0 .55.448 1 1 1h4c.55 0 1-.45 1-1h11c.31 0 .61-.15.8-.4l3-4c.22-.31.26-.71.09-1.05l.035.043ZM2 21.99v-6h2v6H2Zm14.5-1H6v-4.28l4.494-1.5.28.57-1.49 1.49c-.2.19-.29.44-.29.7h-.01v1h9l-1.5 2 .016.02Z" fill="#A3BBCC"/></svg>