<svg width="44" height="56" viewBox="0 0 44 56" xmlns="http://www.w3.org/2000/svg">
  <title>JSON File</title>
  <path fill="#A3BBCC" fill-rule="evenodd" clip-rule="evenodd" d="M2 0C.895431 0 0 .89543 0 2v52c0 1.1046.895431 2 2 2h40c1.1046 0 2-.8954 2-2V4l-4-4H2zm37 1H1v54h42V5h-4V1z"/>
  <path fill="#A3BBCC" d="M10.0156 43.3369c0-.2187.0638-.401.1914-.5469.1322-.1458.3282-.2187.5879-.2187.2598 0 .4558.0729.5879.2187.1367.1459.2051.3282.2051.5469 0 .2096-.0684.3851-.2051.5264-.1321.1413-.3281.2119-.5879.2119-.2597 0-.4557-.0706-.5879-.2119-.1276-.1413-.1914-.3168-.1914-.5264zm4.9698-6.7334v8.251c0 1.4219-.6449 2.1328-1.9346 2.1328-.278 0-.5355-.041-.7725-.123v-1.0118c.1459.0365.3373.0547.5742.0547.2826 0 .4968-.0774.6426-.2324.1504-.1504.2256-.4147.2256-.793v-8.2783h1.2647zm-1.3946-1.9619c0-.2005.0615-.3714.1846-.5127.1276-.1458.3122-.2187.5537-.2187.2461 0 .4329.0706.5605.2119.1277.1412.1915.3144.1915.5195 0 .2051-.0638.376-.1915.5127-.1276.1367-.3144.2051-.5605.2051-.2461 0-.4307-.0684-.5537-.2051-.1231-.1367-.1846-.3076-.1846-.5127zm7.7451 7.3965c0-.3418-.1298-.6061-.3896-.793-.2552-.1914-.7041-.3555-1.3467-.4922-.638-.1367-1.1461-.3008-1.5244-.4922-.3737-.1914-.6517-.4192-.834-.6836-.1777-.2643-.2666-.5787-.2666-.9433 0-.6061.2552-1.1188.7656-1.5381.515-.4193 1.1713-.6289 1.9688-.6289.8385 0 1.5176.2165 2.0371.6494.5241.433.7861.9867.7861 1.6611h-1.2715c0-.3463-.1481-.6448-.4443-.8955-.2917-.2506-.6608-.3759-1.1074-.3759-.4603 0-.8203.1002-1.0801.3007-.2598.2006-.3896.4626-.3896.7862 0 .3053.1207.5355.3623.6904.2415.155.6767.3031 1.3056.4443.6335.1413 1.1462.3099 1.5381.5059.3919.196.6813.4329.8682.7109.1914.2735.2871.6084.2871 1.0049 0 .6608-.2643 1.1918-.793 1.5928-.5286.3965-1.2145.5947-2.0576.5947-.5924 0-1.1165-.1048-1.5723-.3144-.4557-.2097-.8134-.5013-1.0732-.875-.2552-.3783-.3828-.7862-.3828-1.2237h1.2646c.0228.4239.1914.7611.5059 1.0118.319.246.7383.3691 1.2578.3691.4785 0 .8613-.0957 1.1484-.2871.2917-.196.4375-.4557.4375-.7793zm2.5772-1.8047c0-.7246.1413-1.3763.4238-1.9551.2871-.5788.6836-1.0254 1.1895-1.3398.5104-.3145 1.0914-.4717 1.7431-.4717 1.0072 0 1.8207.3486 2.4405 1.0459.6243.6973.9365 1.6247.9365 2.7822v.0889c0 .72-.139 1.3672-.417 1.9414-.2734.5697-.6677 1.014-1.1826 1.333-.5104.319-1.0983.4785-1.7637.4785-1.0026 0-1.8161-.3486-2.4404-1.0459-.6198-.6972-.9297-1.6201-.9297-2.7685v-.0889zm1.2715.1504c0 .8203.1891 1.4788.5674 1.9756.3828.4967.8932.7451 1.5312.7451.6426 0 1.153-.2507 1.5313-.752.3782-.5058.5673-1.2122.5673-2.1191 0-.8112-.1936-1.4674-.581-1.9688-.3828-.5058-.8932-.7587-1.5313-.7587-.6243 0-1.1279.2483-1.5107.7451-.3828.4967-.5742 1.2077-.5742 2.1328zm8.2441-3.7803l.041.9297c.5651-.7109 1.3034-1.0664 2.2149-1.0664 1.5631 0 2.3515.8818 2.3652 2.6455V44h-1.2646v-4.8945c-.0046-.5332-.1276-.9274-.3692-1.1826-.237-.2553-.6084-.3829-1.1142-.3829-.4102 0-.7702.1094-1.0801.3282-.3099.2187-.5515.5058-.7246.8613V44h-1.2647v-7.3965h1.1963z" />
</svg>
