<svg xmlns="http://www.w3.org/2000/svg" width="16" height="20" fill="none">
  <path fill="#A3BBCC" d="M8 9.96997c-.39782 0-.77936.15803-1.06066.43933-.2813.2813-.43934.6628-.43934 1.0607 0 .3978.15804.7793.43934 1.0606S7.60218 12.97 8 12.97c.39782 0 .77936-.1581 1.06066-.4394.2813-.2813.43934-.6628.43934-1.0606 0-.3979-.15804-.7794-.43934-1.0607S8.39782 9.96997 8 9.96997Z"/>
  <path fill="#A3BBCC" d="M14 3.96997h-2V.969971h-2V3.96997H6V.969971H4V3.96997H2c-1.104 0-2 .89-2 2v3C0 13.043 3.06 16.406 7 16.9v3.06h2v-3.07c3.939-.5 7-3.86 7-7.94003v-3c0-1.11-.9-2-2-2v.02Zm0 2v1H2v-1h12ZM8 14.97c-3.31 0-6-2.7-6-6.00003h12C14 12.27 11.308 14.97 8 14.97Z"/>
</svg>