<svg viewBox="0 0 14 14" xmlns="http://www.w3.org/2000/svg">
  <title>Danger</title>
  <path fill="#A3BBCC" d="M7.012 10.203a.578.578 0 0 0 .425-.175.579.579 0 0 0 .175-.425.579.579 0 0 0-.175-.425.579.579 0 0 0-.425-.175.579.579 0 0 0-.425.175.579.579 0 0 0-.175.425c0 .167.058.308.175.425a.578.578 0 0 0 .425.175Zm-.6-2.4h1.2V3.802h-1.2v4Zm.6 5.601a6.238 6.238 0 0 1-2.484-.5 6.456 6.456 0 0 1-2.042-1.375A6.455 6.455 0 0 1 1.11 9.486a6.238 6.238 0 0 1-.5-2.484c0-.889.167-1.72.5-2.492A6.454 6.454 0 0 1 4.528 1.1 6.238 6.238 0 0 1 7.012.6c.89 0 1.72.166 2.493.5a6.483 6.483 0 0 1 3.409 3.409c.333.772.5 1.603.5 2.492 0 .879-.167 1.707-.5 2.484a6.457 6.457 0 0 1-3.41 3.418c-.772.334-1.603.5-2.492.5Z" />
</svg>