<svg xmlns="http://www.w3.org/2000/svg" width="32" height="32" viewBox="0 0 32 32">
  <title>Copy to Clipboard</title>
  <path fill="#A3BBCC" d="M25.313 26.688v-21.375h-2.625v4h-13.375v-4h-2.625v21.375h18.625zM16 2.688c-0.75 0-1.313 0.563-1.313 1.313s0.563 1.313 1.313 1.313 1.313-0.563 1.313-1.313-0.563-1.313-1.313-1.313zM25.313 2.688c1.438 0 2.688 1.188 2.688 2.625v21.375c0 1.438-1.25 2.625-2.688 2.625h-18.625c-1.438 0-2.688-1.188-2.688-2.625v-21.375c0-1.438 1.25-2.625 2.688-2.625h5.563c0.563-1.563 2-2.688 3.75-2.688s3.188 1.125 3.75 2.688h5.563z"></path>
</svg>
