<svg xmlns="http://www.w3.org/2000/svg" id="Layer_1" data-name="Layer 1" viewBox="0 0 20 20"><defs><style>.cls-1{fill:#a3bbcc}</style></defs><path d="m12.64 8.42.81-1.83 1.83-.81-1.83-.82-.81-1.82-.82 1.82-1.82.82 1.82.81.82 1.83zM3.14 8.42l.5-1.09 1.08-.5-1.08-.5-.5-1.08-.5 1.08-1.08.5 1.08.5.5 1.09z" class="cls-1"/><path d="M19.04 7.83c-.31-.31-.68-.47-1.12-.47s-.81.15-1.12.46c-.31.31-.47.68-.47 1.11 0 .14.01.29.04.43l-2.79 2.79c-.07-.01-.14-.03-.21-.03-.14-.02-.28-.02-.42 0-.07 0-.14.02-.21.03L9.95 9.36c.03-.21.04-.34.04-.42 0-.44-.15-.81-.46-1.12-.31-.31-.68-.47-1.12-.47s-.81.15-1.12.46c-.31.31-.47.68-.47 1.11 0 .14.01.29.04.43l-4.38 4.38c-.14-.03-.28-.04-.43-.04-.42 0-.82.16-1.11.46-.31.31-.46.68-.46 1.12 0 .42.16.83.46 1.12.31.31.68.47 1.12.47s.81-.15 1.12-.46c.31-.31.47-.68.47-1.11 0-.08 0-.15-.01-.22 0-.07-.02-.14-.03-.21l4.38-4.38c.21.03.34.04.42.04s.14 0 .21-.01c.07 0 .14-.02.21-.03l2.79 2.79c-.03.14-.04.28-.04.43 0 .42.16.82.46 1.11.31.31.68.46 1.12.46s.81-.15 1.12-.46c.31-.31.47-.68.47-1.11 0-.08 0-.15-.01-.22 0-.07-.02-.14-.03-.21l2.79-2.79c.14.03.28.04.43.04.42 0 .82-.16 1.11-.46.31-.31.46-.68.46-1.12s-.15-.81-.46-1.12Z" class="cls-1"/></svg>