<svg width="44" height="56" viewBox="0 0 44 56" xmlns="http://www.w3.org/2000/svg">
  <title>YAML File</title>
  <path fill="#A3BBCC" fill-rule="evenodd" clip-rule="evenodd" d="M2 0C.895431 0 0 .89543 0 2v52c0 1.1046.895431 2 2 2h40c1.1046 0 2-.8954 2-2V4l-4-4H2zm37 1H1v54h42V5h-4V1z" />
  <path fill="#A3BBCC" d="M6.47461 43.3369c0-.2187.0638-.401.19141-.5469.13216-.1458.32812-.2187.58789-.2187.25976 0 .45573.0729.58789.2187.13672.1459.20508.3282.20508.5469 0 .2096-.06836.3851-.20508.5264-.13216.1413-.32813.2119-.58789.2119-.25977 0-.45573-.0706-.58789-.2119-.12761-.1413-.19141-.3168-.19141-.5264zm6.08399-1.1894l1.7226-5.544h1.3536l-2.9737 8.5381c-.4603 1.2305-1.1917 1.8457-2.1943 1.8457l-.2393-.0205-.47164-.0889v-1.0254l.34184.0274c.4283 0 .761-.0866.998-.2598.2415-.1732.4398-.4899.5947-.9502l.2803-.7519-2.63867-7.3145h1.38087l1.8457 5.544zM21.2266 44c-.073-.1458-.1322-.4056-.1778-.7793-.5879.6107-1.2897.916-2.1054.916-.7292 0-1.3285-.2051-1.7979-.6152-.4648-.4147-.6973-.9388-.6973-1.5723 0-.7702.2917-1.3672.875-1.791.5879-.4284 1.4128-.6426 2.4747-.6426h1.2304v-.581c0-.4421-.1321-.793-.3965-1.0528-.2643-.2643-.6539-.3964-1.1689-.3964-.4512 0-.8294.1139-1.1348.3417-.3053.2279-.458.5036-.458.8272h-1.2715c0-.3691.1299-.7246.3897-1.0664.2643-.3464.6198-.6198 1.0664-.8203.4512-.2005.9456-.3008 1.4834-.3008.8522 0 1.5198.2142 2.0029.6426.4831.4238.7337 1.0094.752 1.7568v3.4043c0 .679.0866 1.2191.2597 1.6201V44h-1.3261zm-2.0987-.9639c.3965 0 .7725-.1025 1.128-.3076.3554-.2051.6129-.4717.7724-.7998v-1.5176h-.9912c-1.5495 0-2.3242.4535-2.3242 1.3604 0 .3965.1322.7064.3965.9297.2643.2233.6038.3349 1.0185.3349zm6.3369-6.4326l.0342.8203c.5423-.638 1.2738-.957 2.1944-.957 1.0345 0 1.7386.3965 2.1123 1.1894.2461-.3554.5651-.6425.957-.8613.3965-.2187.8636-.3281 1.4014-.3281 1.6224 0 2.4472.859 2.4746 2.5771V44H33.374v-4.8809c0-.5286-.1207-.9228-.3623-1.1826-.2415-.2643-.6471-.3965-1.2168-.3965-.4694 0-.859.1413-1.1689.4239-.3099.278-.4899.6539-.5401 1.1279V44h-1.2714v-4.8467c0-1.0755-.5264-1.6133-1.5791-1.6133-.8295 0-1.3969.3532-1.7022 1.0596V44h-1.2646v-7.3965h1.1962zM37.9268 44h-1.2647V33.5h1.2647V44z" />
</svg>
