<svg width="564" height="260" fill="none" xmlns="http://www.w3.org/2000/svg"><mask id="a" style="mask-type:alpha" maskUnits="userSpaceOnUse" x="0" y="0" width="564" height="260"><path d="M0 8a8 8 0 0 1 8-8h548a8 8 0 0 1 8 8v252H0V8Z" fill="#F4F4F4"/></mask><g mask="url(#a)"><path d="m393.737 154.563-3.162 1.064-2.227-6.619 3.163-1.064 2.226 6.619ZM302.947 157.358l2.46-.828 1.733 5.148-2.46.828-1.733-5.148ZM326.318 80.68l3.686-.392.822 7.716-3.687.393-.821-7.716Z" fill="#BCCBFF"/><path d="m312.467 112.509 3.222-1.837 3.842 6.741-3.22 1.836-3.844-6.74Z" fill="#FF7581"/><path d="m342.041 139.556-3.004-1.45 3.036-6.29 3.005 1.451-3.037 6.289Z" fill="#BCCBFF"/><path d="m276.064 146.156 6.493-2.569 1.228 3.102-6.493 2.569-1.228-3.102Z" fill="#FF7581"/><path d="m326.176 170.728 3.648-.657 1.376 7.636-3.649.658-1.375-7.637Z" fill="#BCCBFF"/><path d="m367.314 163.454 1.333-6.854 3.275.637-1.332 6.854-3.276-.637Z" fill="#FF7581"/><path d="m194.145 120.417 2.111-2.583 5.407 4.419-2.112 2.584-5.406-4.42ZM251.686 87.73l-1.643 2.009-4.205-3.438 1.642-2.008 4.206 3.437ZM274.353 120.603l-2.914 2.294-4.8-6.096 2.913-2.293 4.801 6.095Z" fill="#BCCBFF"/><path d="m228.53 151.245-1.751 3.269-6.84-3.663 1.751-3.269 6.84 3.663Z" fill="#FF7581"/><path d="m188.068 156.492 3.316-.37.775 6.94-3.316.371-.775-6.941ZM255.486 127.123l1.609 6.795-3.246.77-1.611-6.796 3.248-.769Z" fill="#BCCBFF"/><path d="m270.017 95.16-4.131 5.63-2.691-1.974 4.132-5.63 2.69 1.975Z" fill="#FF7581"/><path d="m215.563 112.088-2.74 2.497-5.227-5.733 2.739-2.498 5.228 5.734Z" fill="#BCCBFF"/><path d="m385.322 182.485 6.493-2.568 1.227 3.102-6.493 2.569-1.227-3.103Z" fill="#FF7581"/><path d="m378.18 124.409-3.659-.602 1.261-7.656 3.657.602-1.259 7.656ZM225.64 94.02l-3.844-1.293-2.706 8.044 3.843 1.293 2.707-8.043ZM259.352 199.682l-2.46-.828-1.732 5.148 2.46.828 1.732-5.148ZM281.116 162.784l-3.687-.392-.822 7.715 3.687.393.822-7.716Z" fill="#BCCBFF"/><path d="m216.358 173.669-3.221-1.837-3.844 6.741 3.222 1.836 3.843-6.74Z" fill="#FF7581"/><path d="m241.75 193.321-2.252-6.609-3.158 1.075 2.25 6.611 3.16-1.077Z" fill="#BCCBFF"/><path d="m299.554 189.547-6.493-2.568-1.227 3.103 6.493 2.569 1.227-3.104Z" fill="#FF7581"/><path d="m393.618 31.949-3.687-.392-.822 7.715 3.687.393.822-7.716ZM342.352 103.754l3.163 1.063 2.226-6.618-3.163-1.064-2.226 6.619ZM406.9 90.29l-2.459-.828-1.732 5.148 2.46.827 1.731-5.147Z" fill="#BCCBFF"/><path d="m371.559 53.17-3.22-1.836-3.845 6.74 3.222 1.837 3.843-6.74Z" fill="#FF7581"/><path d="m321.249 34.418 3.004-1.45-3.035-6.29-3.005 1.452 3.036 6.288ZM397.861 65.136l-2.253-6.61-3.159 1.076 2.253 6.611 3.159-1.077ZM371.425 87.052l-3.683.415.87 7.71 3.685-.414-.872-7.71ZM287.34 38.972l-.375 2.98 6.238.787.375-2.98-6.238-.787ZM302.319 80.085l.292-2.318-4.851-.612-.291 2.318 4.85.612ZM196.853 96.142l-.31-3.324-6.955.649.31 3.323 6.955-.648Z" fill="#BCCBFF"/><path d="m354.855 41.193 1.048-3.17-6.633-2.191L348.223 39l6.632 2.192Z" fill="#FF7581"/><path d="m307.256 11.799 1.814 2.393 5.01-3.799L312.264 8l-5.008 3.799ZM322.908 67.626l5.433-3.164-1.511-2.596-5.434 3.164 1.512 2.596Z" fill="#BCCBFF"/><path d="m295.633 108.028 1.11-6.187-2.955-.532-1.11 6.188 2.955.531Z" fill="#FF7581"/><path d="m310.817 55.474-.069-3.337-6.984.145.07 3.337 6.983-.145Z" fill="#92A5F8"/><path d="m130.279 70.66 3.162 1.064 2.228-6.619-3.163-1.064-2.227 6.618ZM255.209 45.293l-2.46-.828-1.731 5.148 2.459.828 1.732-5.148ZM270.036 39.784l-.574-3.663-7.665 1.2.573 3.662 7.666-1.199ZM209.037 44.718l3.005-1.45-3.036-6.29-3.004 1.451 3.035 6.289ZM246.167 34.71l-2.253-6.609-3.158 1.075 2.251 6.611 3.16-1.076Z" fill="#BCCBFF"/><path d="m282.027 62.223-6.493-2.569-1.227 3.102 6.492 2.57 1.228-3.103Z" fill="#FF7581"/><path d="m201.477 46.745-3.648-.658-1.376 7.636 3.648.658 1.376-7.636ZM166.671 82.714l-2.461-.827-1.731 5.148 2.46.827 1.732-5.148ZM179.505 38.227l-3.687-.393-.822 7.716 3.687.393.822-7.716ZM157.626 57.56l-2.253-6.61-3.158 1.076 2.251 6.611 3.16-1.076Z" fill="#BCCBFF"/><path d="m196.292 71.015-6.491-2.57-1.229 3.103 6.494 2.569 1.226-3.102Z" fill="#FF7581"/><path d="m124.845 114.042-1.113 3.146 6.585 2.327 1.111-3.147-6.583-2.326ZM173.721 187.911l.448-3.681-7.702-.937-.447 3.68 7.701.938Z" fill="#BCCBFF"/><path d="m169.048 127.426 1.885-3.194-6.683-3.944-1.885 3.192 6.683 3.946Z" fill="#FF7581"/><path d="m142.213 101.69 1.405 3.026 6.335-2.941-1.406-3.027-6.334 2.942ZM168.194 156.24l6.643-2.154-1.027-3.173-6.644 2.151 1.028 3.176ZM145.416 151.266l.712-3.638-7.615-1.49-.712 3.637 7.615 1.491Z" fill="#BCCBFF"/><path d="M234.491 415.247c-.766.758-2.224.865-3.504.91-5.786.214-10.769 1.873-16.612 1.159-1.065-.124-2.174-.276-3.053-.874-1.712-1.15-1.794-7.796-2.334-9.865a1708.748 1708.748 0 0 1-3.485-13.54c-2.225-8.76-4.909-17.489-6.879-26.299l-6.598-29.485-14.469-77.797-2.053 40.045.243.667c-2.293 22.712-4.583 45.423-6.877 68.131-1.225 12.178-2.454 24.354-3.683 36.53-.359 3.559-.674 7.127-1.078 10.677-.421 3.702-1.308 4.272-5.354 5.254-5.705 1.382-11.861 1.329-17.603.178-.931-4.487-.203-10.775-.433-15.538-.31-6.61-.522-13.22-.718-19.829-.287-9.835-.458-19.669-.715-29.503-.575-21.93-.619-43.871-.124-65.803.541-24.289-7.632-63.93 19.963-76.317a37.482 37.482 0 0 1 5.059-1.842c10.372-2.985 22.123-2.16 31.424 3.029a33.186 33.186 0 0 1 4.387 2.923c22.065 17.478 20.425 61.107 23.486 86.009a3257.687 3257.687 0 0 1 11.511 109.013c.068.749.106 1.569-.501 2.167Z" fill="#A0616B"/><path d="M154.432 162.545c-1.705 2.953-3.93 5.631-7.298 8.098-6.938 5.082-15.45 7.57-22.966 11.622-2.246 1.211-4.478 2.633-5.782 4.694-1.304 2.059-1.419 4.905.365 6.597 2.342 2.221 6.769 1.639 9.045 3.917.906.905 1.324 2.141 2.185 3.081 1.518 1.66 4.098 2.105 6.478 2.232 11.376.613 22.823-3.768 31.197-10.938 8.372-7.171 13.786-16.936 16.266-27.12 1.657-6.808 1.674-16.685-3.185-22.292-7.564-8.729-17.798-1.445-21.026 7.304-1.773 4.808-3.1 9.031-5.279 12.805Z" fill="#35324C"/><path d="M198.94 201.084c-.297-2.602-.341-5.265-.272-7.803.02-.762.05-1.515.087-2.26.137-2.931.826-5.82 1.867-8.665-3.022-.186-6.031-1.701-8.339-3.474-3.073-2.364-4.644-6.143-5.141-9.877-.097-.74-.107-1.51-.046-2.288-.886.404-1.809.66-2.771.717a7.556 7.556 0 0 1-1.456-.048c-1.203-.168-2.111-.656-2.793-1.364-1.372-1.43-1.815-3.756-1.86-6.14-.006-.24-.007-.482-.005-.723.044-3.877.981-7.688.51-7.838l-.004.001-.033-.004-11.859.928c.21.888.395 2.151.494 3.59.267 3.897-.099 9.084-2.342 11.638-.514.586-1.125 1.03-1.849 1.292a5.113 5.113 0 0 1-1.416.295c-.946.059-1.885-.149-2.797-.533-.211 3.036-1.577 5.943-3.414 8.332-2.214 2.88-6.321 4.831-9.876 5.142-.801.069-1.595.063-2.377-.005.113.24.228.479.338.719 2.572 5.635 4.12 11.7 4.88 17.873a38.489 38.489 0 0 1 .279 3.883c.008.131.007.261.007.395.005.195.006.386.003.578 0 .13-.003.264-.006.399a30.862 30.862 0 0 1-.089 1.95c-.064.81-.153 1.617-.279 2.42a63.698 63.698 0 0 0 7.297 2.302c3.755.671 7.564.992 11.402.987 5.884-.373 11.666-1.457 17.347-2.958 2.779-.855 5.504-1.851 8.078-3.14.58-.394 1.143-.807 1.684-1.244 1.352-1.461 2.99-2.609 4.914-3.438l.056-.016c-.04-.268-.081-.538-.114-.809a22.642 22.642 0 0 1-.105-.814Z" fill="#FDC5B6"/><path d="M178.214 159.159c-.003.241-.001.484.004.723-.84.247-1.723.35-2.606.277-2.375-.198-4.375-1.616-5.591-3.322a9.852 9.852 0 0 1-.708-1.15c-.099-1.441-.284-2.704-.495-3.591l9.901-.774.004-.001c.472.15-.466 3.961-.509 7.838Z" fill="#35324C"/><path d="M180.831 146.111c-.398-.661-1.26-1.003-1.999-1.407a7.105 7.105 0 0 1-.35-.204c-1.49-.479-3.033-1.231-3.898-1.881l-.047-.036-.787-.708a38.99 38.99 0 0 1-2.762 2.947c-1.094 1.052-2.349 1.964-3.7 2.742a23.79 23.79 0 0 1-2.298 1.214c.49 1.717 1.052 3.433 2.124 4.935 1.218 1.704 3.217 3.121 5.594 3.32 2.695.224 5.387-1.206 6.835-3.169 1.448-1.963 1.805-4.359 1.588-6.628-.038-.386-.093-.782-.3-1.125ZM243.191 70.606l.051.037.064.022-.115-.059ZM244.752 72.705l-4.112 5.01-.195.098-.172-.044a.217.217 0 0 1-.055-.328l4.248-5.17a.44.44 0 0 0-.016-.591l-.003-.007a.43.43 0 0 0-.61.006l-4.516 4.927-.184.087-.185-.053a.213.213 0 0 1-.031-.325l4.396-4.801a.575.575 0 0 0-.077-.871.588.588 0 0 0-.576.154l-4.89 5.075-.177.084-.191-.056a.22.22 0 0 1-.025-.33l4.77-4.952c.105-.112.004-.281-.159-.26a1.762 1.762 0 0 0-1.004.472c-2.236 2.117-4.512 4.203-6.775 6.295-1.12 1.035-2.209 2.326-3.48 3.212-.233.165-.404.254-.522.286a9.263 9.263 0 0 0-.277-1.234c-.073-.67-.092-1.358-.137-1.965-.053-.698.217-2.292-.527-2.755a.764.764 0 0 0-.801-.033c-.682.35-.491 1.323-.649 1.917-.331 1.263-.684 2.672-.843 3.963-.119.95-.173 1.908.038 2.843.017.082.038.167.056.257l-.314-.128-10.443 36.94 13.527 3.131 6.43-36.202c.048-.282.115-.565.204-.839.314-.961.906-1.833 1.492-2.687 2.108-3.075 4.217-6.149 6.322-9.224.387-.561.784-1.2.744-1.83-.228-.056-.056-.012-.281-.072Z" fill="#FDC5B6"/><path d="M232.109 84.49c.217-1.543-.609-3.21-1.968-3.962l-.088.183c1.282.71 2.063 2.283 1.857 3.74l.199.04Z" fill="#171F3D"/><path d="m89.091 83.08-.044.043-.06.031.104-.074Z" fill="#FDC5B6"/><path d="m87.86 85.389 4.817 4.336.207.068.164-.069a.217.217 0 0 0 .005-.332l-4.974-4.475a.44.44 0 0 1-.074-.587l.003-.007a.429.429 0 0 1 .603-.086l5.203 4.194.196.059.175-.08a.213.213 0 0 0-.018-.327L89.1 83.997a.575.575 0 0 1-.054-.874.586.586 0 0 1 .592.066l5.596 4.285.188.056.18-.084a.221.221 0 0 0-.024-.33l-5.459-4.18c-.121-.095-.047-.278.119-.28a1.77 1.77 0 0 1 1.063.314c2.528 1.757 5.09 3.479 7.641 5.207 1.264.856 2.534 1.969 3.923 2.654.256.128.438.19.56.205a9.17 9.17 0 0 1 .088-1.261c-.028-.674-.113-1.358-.159-1.963-.053-.7-.557-2.235.108-2.804a.762.762 0 0 1 .786-.152c.728.242.684 1.233.93 1.797.516 1.2 1.077 2.54 1.428 3.792.261.921.456 1.86.389 2.816-.005.084-.013.172-.017.262l.292-.172 15.865 34.955-12.903 5.124-11.788-34.827a6.135 6.135 0 0 0-.328-.8c-.454-.902-1.17-1.675-1.879-2.432-2.545-2.723-5.091-5.447-7.633-8.17-.468-.497-.956-1.07-1.01-1.699.217-.09.052-.02.267-.113Z" fill="#FDC5B6"/><path d="M102.135 95.144c-.448-1.493.119-3.265 1.348-4.212l.115.168c-1.16.893-1.696 2.566-1.273 3.976l-.19.068Z" fill="#171F3D"/><path d="m174.644 149.007 1.872-.169-.657-3.747-.636.059.563 3.211-1.235.111.093.535ZM177.866 146.102c.292-.027.495-.249.452-.494-.043-.245-.317-.425-.608-.397-.292.027-.495.25-.452.495.043.245.317.424.608.396ZM171.888 147.003c.29-.027.494-.25.451-.495-.043-.245-.317-.424-.608-.397-.291.027-.495.25-.452.495.043.245.317.424.609.397Z" fill="#150077"/><path d="m177.508 150.002-4.18.293.629.841c.932 1.247 2.481 1.09 3.159-.32l.392-.814Z" fill="#fff"/><path d="M195.461 214.459c-5.854 3.033-22.388 4.927-25.646 5.268-.491.054-2.105-.035-2.528.194-.596.323-3.265 3.04-3.594 3.594-1.38 2.32-5.502 4.959-7.702 6.675-2.141 1.671.113 1.832-2.834 1.572-.198-1.193 1.483-10.237 2.608-16.662a42.021 42.021 0 0 1 5.253-2.244c9.07-3.19 20.851-3.915 30.523-4.621 3.02-.22 6.78 1.782 5.917 4.438-.205.632-.921 1.228-1.997 1.786Z" fill="#0F0C26"/><path d="M209.885 165.427c-5.166 8.058-10.713 16.635-11.132 25.594a96.652 96.652 0 0 0-.087 2.26c-.069 2.538-.025 5.201.272 7.803.034.274.067.545.104.814.034.271.074.541.118.809h-.003l-.056.016c-1.924.829-3.562 1.977-4.914 3.438a25.07 25.07 0 0 1-1.685 1.244c-2.573 1.289-5.298 2.285-8.077 3.14-5.682 1.501-11.463 2.585-17.347 2.959a64.274 64.274 0 0 1-11.402-.989 63.575 63.575 0 0 1-7.298-2.301 31.221 31.221 0 0 0 .369-4.37c.003-.134.007-.265.006-.399.003-.192.002-.383-.004-.578 0-.13-.002-.264-.006-.394a7.19 7.19 0 0 0-.009-.389 38.489 38.489 0 0 0-.27-3.495c-.76-6.172-2.308-12.238-4.88-17.873a132.892 132.892 0 0 1 5.904-8.72c.939-1.271 3.296-5.034 5.774-7.933 1.927 1.749 4.168 3.14 6.448 2.998a5.113 5.113 0 0 0 1.416-.295c.724-.262 1.335-.706 1.849-1.292 1.147 1.004 2.458 1.666 4.313 2.006 4.04.739 8.111-.772 10.786-3.458.682.708 1.59 1.196 2.793 1.364.445.06.928.079 1.456.048 3.492-.209 6.477-2.952 9.027-6.397 5.69.96 11.277 2.293 16.535 4.39Z" fill="#E9EEFF"/><path d="M166.136 189.637c.257 9.35-1.379 18.743-4.34 27.723-1.785 5.413-4.173 10.913-8.732 14.771-3.101-.626-6.078-1.566-8.846-2.888-1.543-.734-3.178-1.862-3.211-3.46-.021-.945.535-1.81 1.027-2.648 3.69-6.27 4.474-13.663 3.61-20.681-1.284-10.458-4.635-20.626-10.958-29.243l-28.692-39.133c-.482-.656-.261-1.664.568-1.921 5.138-1.592 9.606-3.205 14.535-6.539.396-.268.949-.186 1.225.175 8.513 11.094 17.183 22.086 25.858 33.077l.012.016c2.275 2.884 7.078 9.166 12.033 8.859.107.099.207.203.306.309 5.05 5.323 5.42 14.805 5.605 21.583ZM201.369 194.412a37.76 37.76 0 0 0 6.403 21.804c1.524 2.265 1.936 2.3-.755 5.431-1.182 1.374-2.96 1.938-4.344 2.725-8.615-6.384-13.999-15.67-16.829-25.886-1.385-5.002-2.21-10.145-2.782-15.298-.535-4.827-2.037-11.359-.187-15.993.18-.449.397-.88.642-1.293.49.066 1.02.086 1.603.052 8.829-.525 14.715-15.784 18.649-21.303 1.087-1.528 5.775-10.592 9.06-17.886l-.386 1.16a97.1 97.1 0 0 0 1.737-4.251c.956-2.278 1.657-4.175 1.896-5.306.088-.428.62-.642 1.017-.407 4.516 2.645 12.187 4.429 16.325 5.708 2.903 1.563-29.254 56.677-30.559 61.086a36.739 36.739 0 0 0-1.49 9.657Z" fill="#FF7581"/><path d="m185.257 246.619-1.269 47.412-6.432-34.575-.161 3.104-.352-4.132 8.214-11.809Z" fill="#0F0C26"/><path d="M334.136 131.534c-.147-.683-.304-1.389-.718-1.952-.389-.529-.967-.879-1.531-1.216-2.109-1.263-8.728-3.759-9.873-6.163-.043-.093-21.878-45.98-21.878-45.98-1.486-3.938-2.66-7.934-2.734-12.09-.04-2.206.206-4.377 1.033-6.532.088-.235.188-.474.198-.729.012-.252-.079-.528-.289-.65-.578-.335-2.704 4.353-2.639 4.793-1.523-3.077-2.887-5.892-3.689-7.89-.42-1.051-1.036-3.404-2.048-3.983a1.362 1.362 0 0 0-.584-.171c-.209-.016-.373.203-.308.419a166.587 166.587 0 0 0 2.774 8.268c.056.162-.015.343-.165.408l-.221-.003a.292.292 0 0 1-.156-.172 165.781 165.781 0 0 1-2.717-8.082c-.147-.483-.735-.68-1.116-.267a.788.788 0 0 0-.158.767c.15.486.301.985.456 1.498.707 2.34 1.44 4.757 2.251 6.229a.328.328 0 0 1-.103.428.278.278 0 0 1-.262.02l-1.013-2.1c-.338-.894-1.119-2.614-1.192-2.467l-1.631-3.38-.155.176a2.099 2.099 0 0 0-.372 2.166l2.544 6.371h-.228l-.154-.161-.064-.165-3.446-5.17a8.288 8.288 0 0 0-.154.557 3.902 3.902 0 0 0 .426 2.82l1.552 2.713c-.394 3.433 1.188 5.52 1.816 8.613.765 3.774.487 7.944.353 11.788a156.57 156.57 0 0 0 .044 11.947c.336 8.059 1.091 16.17 3.243 23.97 1.081 3.915 2.516 7.738 4.38 11.35 1.614 3.128 3.457 7.09 5.926 9.592 3.975 4.024 7.246 10.07 12.485 12.631 1.98.968 4.193 1.256 6.755.384a61.735 61.735 0 0 0 6.362-2.57c2.688-1.265 5.43-2.868 6.807-5.499 1.662-3.174.948-7.014.193-10.516Z" fill="#FDC5B6"/><path d="M293.998 66.974c-.929-2.266-.244-5.058 1.627-6.637l.21.247c-1.768 1.492-2.414 4.128-1.538 6.268l-.299.122Z" fill="#171F3D"/><path d="M352.838 167.723c-4.927 3.021-11.132 3.871-16.69 2.288-5.442-1.55-8.694-4.977-12.092-9.208-3.006-3.737-6.241-6.32-9.995-9.601-6.843-5.99-12.127-13.175-15.104-21.604 5.363-2.615 13.929-7.414 14.984-8.031 2.39-1.406 4.313-2.266 6.246-2.705a31.592 31.592 0 0 0 3.075 2.789c10.439 8.298 23.671 12.984 32.443 23.359l.093.112c2.513 2.996 4.594 6.605 4.622 10.512.041 4.973-3.338 9.491-7.582 12.089Z" fill="#E9EEFF"/><path d="M360.483 154.224c.048 4.772-3.324 9.102-7.562 11.59-4.922 2.893-11.125 3.7-16.686 2.167a18.688 18.688 0 0 1-5.607-2.582 30.303 30.303 0 0 1-5.463-1.854c-.377-.168-.75-.343-1.119-.527a38.349 38.349 0 0 1-4.854-2.865c-8.445-5.844-14.863-14.842-18.95-21.811-2.749-4.673-4.439-8.438-4.99-9.715-.134-.301-.199-.465-.199-.465l.904.154 7.598 1.29c2.982-2.074 5.946-4.412 8.887-6.528 2.474-1.79 4.932-3.422 7.366-4.611l.38.38a30.804 30.804 0 0 0 3.081 2.681c10.451 7.989 23.693 12.507 32.48 22.485l.092.106c2.516 2.882 4.603 6.349 4.642 10.105Z" fill="#E9EEFF"/><path d="m320.117 114.251-.166-.175c-.874.072-1.786.381-2.706.799-.169.128-.338.256-.508.382-1.831 1.368-3.826 2.481-5.913 3.45-5.733 2.663-11.802 4.807-18.222 5.067a29.414 29.414 0 0 0 3.597 10.349c.273.472.598.973 1.129 1.158.436.154.92.058 1.371-.045 5.342-1.216 23.413-7.882 25.797-14.908-.125-.158-.251-.315-.372-.476-1.382-1.835-2.626-3.766-4.007-5.601Z" fill="#E9EEFF"/><path d="M336.838 139.029c-2.219 8.811-4.467 17.491-6.521 26.295a30.333 30.333 0 0 1-5.155-1.779c-.377-.168-.75-.343-1.119-.527 2.711-9.787 7.355-23.188 12.795-23.989Z" fill="#36314C"/><path d="M319.029 437.797c.927.17 1.9.313 2.901.437h20.135c4.294-7.858 10.692-88.214 14.346-138.845a6459.45 6459.45 0 0 0 2.626-37.848l28.155 132.772c2.25 10.606 4.499 21.22 6.748 31.826.601 2.828.707 7.029 2.038 9.616.477.927 1.27 1.748 2.294 2.479h25.713c2.764-5.334-1.792-15.993-2.446-21.657l-2.912-25.225c-3.818-33.082-7.634-66.162-11.455-99.24-1.992-17.249-2.549-34.233-6.605-51.104-2.353-9.783-4.892-20.383-9.037-29.558a66.07 66.07 0 0 0-.804-1.72c-5.984-12.354-6.377-9.707-18.404-9.663-10.713.045-21.229-3.312-31.956-3.614-3.763-.106-6.779.567-9.269 1.864-5.564 2.894-8.518 8.894-11.333 16.274-7.743 20.286-6.458 38.723-7.038 59.991-1.496 54.691 7.202 108.706 6.303 163.215Z" fill="#6575EA"/><path d="M391.779 211.423c-6.07 2.453-13.184 2.279-19.821 1.76-12.082-.94-32.097-3.404-40.612-14.893 2.49-1.298 5.506-1.971 9.269-1.864 10.726.302 21.243 3.658 31.956 3.614 12.025-.045 12.42-2.691 18.404 9.663.276.566.542 1.14.804 1.72Z" fill="#35324C"/><path d="M474.434 25.36c.096-.082.19-.166.289-.246.553-.88 1.114-1.756 1.685-2.622l-1.974 2.868Z" fill="#171F3D"/><path d="M411.101 158.063a75.24 75.24 0 0 1-9.271 27.851c-1.919 3.383-4.151 6.749-4.671 10.564-.415 3.023.28 6.154-.486 9.113-.3 1.144-.823 2.067-1.52 2.809-4.106 4.382-14.219 2.507-19.384 2.443-11.302-.14-22.851.295-33.742-2.596-17.765-3.176-15.18-18.511-15.377-31.687-.116-7.72-.216-15.562 1.92-23.01 3.01-10.491 5.247-19.815 18.966-19.467 8 .204 14.839 2.211 21.86 3.947 10.487 2.592 34.005-1.008 40.232 8.892 2.061 3.269 1.945 7.352 1.473 11.141Z" fill="#E9EEFF"/><path d="M375.254 128.78c1.451-2.526 2.08-5.246-1.156-7.712-1.762-1.344-4.316-1.762-5.35-3.745-.348-.665-.464-1.424-.768-2.11-.975-2.191-3.819-3.108-5.937-2.289-2.119.819-3.492 2.982-3.978 5.27-1.212 5.712 2.436 11.904 7.084 15.374 4.9 3.659 4.066 4.235 7.53-.961.782-1.175 1.797-2.473 2.575-3.827Z" fill="#35324C"/><path d="M370.217 138.956a2.545 2.545 0 0 1-.45.247c-3.233 1.789-7.127 4.447-10.993 3.271-2.208-.671-1.173-3.819-1.035-5.562l.566-7.18.172-2.216 10.558.831 1.182 10.609Z" fill="#FDC5B6"/><path d="m366.037 130.339-.077.97a4.605 4.605 0 0 1-.568 1.839c-1.206 2.191-4.177 3.701-7.652 3.764l.567-7.181 7.73.608Z" fill="#35324C"/><path d="M358.976 120.45c.097-.042.197-.079.297-.108 3.703-1.08 8.496 2.013 11.947 3.027-.04.226-.091.45-.16.675l-2.263 7.255a3.911 3.911 0 0 0-.192 1.006 4.747 4.747 0 0 0-.379.239 7.229 7.229 0 0 0-.561-.191c-1.605 1.341-6.556 3.085-9.713 1.683-.334-.148-.711-.519-1.102-1.036-1.61-2.131-2.066-4.949-1.283-7.494.515-1.676 1.71-4.316 3.409-5.056Z" fill="#FDC5B6"/><path d="m366.827 120.553-.009 4.818c-.002 1.506 1.171 2.722 2.62 2.716l2.627-.012 1.411-6.668-4.257-.865-2.392.011ZM366.576 128.599l.191 3.774c.06 1.264 1.503 2.371 3.414 2.739l.527-6.692-4.132.179Z" fill="#35324C"/><path d="M366.771 131.986c.985 1.008 2.629 1.065 3.672.124a2.431 2.431 0 0 0 .108-3.53c-.986-1.009-2.63-1.064-3.674-.124a2.43 2.43 0 0 0-.106 3.53Z" fill="#35324C"/><path d="M366.255 131.606c.985 1.009 2.628 1.065 3.672.124a2.428 2.428 0 0 0 .106-3.529c-.984-1.009-2.628-1.065-3.671-.125a2.43 2.43 0 0 0-.107 3.53Z" fill="#FDC5B6"/><path d="m360.433 127.519-1.701-.682 1.787-3.651.576.233-1.53 3.128 1.121.45-.253.522ZM358.323 123.673c-.265-.107-.385-.39-.269-.629.117-.239.429-.347.693-.24.265.106.386.389.269.628-.117.239-.429.348-.693.241Z" fill="#35324C"/><path d="M362.885 125.885c-.264-.107-.385-.39-.268-.629.117-.239.428-.347.693-.24.264.107.386.39.268.629-.117.239-.428.347-.693.24Z" fill="#150077"/><path d="m357.215 127.957 4.226 1.587-.942.762c-1.395 1.129-2.946.487-3.16-1.31l-.124-1.039Z" fill="#fff"/><path d="m359.71 244.534-.422 16.98c-.4 6.058-1.345 20.135-2.625 37.848l-5.837-67.945 8.884 13.117Z" fill="#35324C"/><path d="M414.921 135.541c.206-.687.423-1.396.894-1.937.441-.51 1.062-.822 1.666-1.121 2.26-1.118 9.234-3.13 10.602-5.496l26.138-45.242c1.842-3.907 3.37-7.897 3.786-12.142.22-2.253.146-4.494-.524-6.766-.071-.247-.152-.5-.141-.762.007-.259.123-.534.348-.641.619-.295 2.409 4.674 2.307 5.119 1.809-3.024 3.435-5.79 4.42-7.77.515-1.04 1.336-3.396 2.42-3.905.187-.09.391-.13.611-.128.215 0 .365.238.281.453a171.002 171.002 0 0 1-3.515 8.23.336.336 0 0 0 .136.432l.227.015a.299.299 0 0 0 .173-.165c1.21-2.632 2.36-5.332 3.441-8.043.189-.482.806-.636 1.163-.182a.806.806 0 0 1 .098.797c-.192.485-.389.984-.588 1.496-.914 2.334-1.863 4.748-2.813 6.187a.338.338 0 0 0 .071.447c.081.06.18.07.266.041l1.208-2.064c.419-.888 1.358-2.585 1.421-2.428l1.945-3.324.144.193c.485.65.565 1.519.203 2.246l-3.123 6.309.233.02.172-.153.078-.163 3.948-5.008c.045.19.081.385.111.583a4.002 4.002 0 0 1-.666 2.85l-1.809 2.648a14.305 14.305 0 0 1-3.165 9.478c-.393.488-.786.977-1.187 1.458.247-.128.534-.144.736-.224.667 2.822-.137 7.018-.271 9.977a161.06 161.06 0 0 1-1.021 12.217c-1.004 8.216-2.438 16.451-5.278 24.253-1.427 3.917-3.207 7.709-5.408 11.251-1.908 3.068-4.116 6.97-6.847 9.326-4.395 3.792-8.234 9.709-13.802 11.9-2.105.828-4.392.941-6.941-.16a62.907 62.907 0 0 1-6.298-3.15c-2.647-1.513-5.319-3.376-6.512-6.181-1.442-3.382-.397-7.251.662-10.771Z" fill="#FDC5B6"/><path d="M461.25 72.787c1.136-2.243.663-5.154-1.122-6.923l-.233.237c1.684 1.67 2.13 4.419 1.058 6.535l.297.151Z" fill="#171F3D"/><path d="M373.046 154.161c.07-.448.167-.892.293-1.332 1.114-3.87 4.266-6.857 7.696-9.118l.126-.084c11.947-7.803 26.938-8.685 40.036-13.951a33.73 33.73 0 0 0 3.951-1.891c.17-.095.339-.193.504-.286a37.484 37.484 0 0 1 2.155 2.086c.963.771 1.95 1.69 3.026 2.802.85.875 7.393 7.36 12.162 11.672l4.506.461.976.098s-.114.151-.34.424c-.933 1.161-3.761 4.571-7.943 8.621-14.181 13.755-44.841 34.575-62.815 15.32-3.643-3.902-5.845-9.543-4.379-14.676l.046-.146Z" fill="#E9EEFF"/><path d="M428.347 137.012c-.154 5.012 5.917 12.158 11.638 17.553 4.227-4.247 7.092-7.818 8.039-9.033-.212-.176-.423-.358-.634-.538a75.9 75.9 0 0 1-4.899-4.607c-1.711-1.739-3.272-3.591-4.58-5.641-.123-.186-.24-.38-.362-.57-.757-.758-1.544-1.403-2.384-1.796l-.23.117a102.344 102.344 0 0 0-3.034 2.095 97.855 97.855 0 0 1-3.008 2.078c-.181.117-.363.229-.546.342Z" fill="#35324C"/><path d="m426.539 123.05.222-.132c.883.325 1.738.904 2.569 1.601l.416.54c1.504 1.939 3.247 3.662 5.129 5.262 5.166 4.396 10.83 8.353 17.396 10.461a31.569 31.569 0 0 1-6.685 9.672c-.417.412-.898.836-1.5.876-.495.033-.968-.204-1.405-.44-5.177-2.788-21.957-14.859-22.411-22.809.174-.126.348-.254.52-.385 1.957-1.503 3.795-3.143 5.749-4.646Z" fill="#E9EEFF"/><path d="m359.916 144.382-2.424 2.287-.027.118 1.61 4.779.106.006 2.329-4.186.004-.109-1.515-2.879-.083-.016Z" fill="#97A2F8"/><path d="m359.398 148.716 3.372 37.741a1.04 1.04 0 0 1-.209.727l-7.994 10.208c-.392.501-1.093.388-1.331-.213l-4.597-11.626a1.054 1.054 0 0 1-.026-.684l10.785-36.153Z" fill="#92A5F8"/><path d="m375.305 136.453-8.068 13.386-7.222-5.715-8.874 2.08 2.961-11.159.399.107-2.789 10.516 8.405-1.986.073.055 6.943 5.508 7.712-12.844.46.052Z" fill="#fff"/></g></svg>
