<?xml version="1.0" encoding="UTF-8"?>
<svg width="400px" height="132px" viewBox="0 0 400 132" version="1.1" xmlns="http://www.w3.org/2000/svg" xmlns:xlink="http://www.w3.org/1999/xlink">
  <g id="Page-1" stroke="none" stroke-width="1" fill="none" fill-rule="evenodd">
    <g id="illustration-chart-sm" transform="translate(0.000000, 112.463823)" opacity="0.35" stroke-width="1.5">
      <polyline id="dashed-line-blue" stroke="#0D93F2" points="0 10 8.43478261 9 16.8695652 8.29577856 25.3043478 3.78721144 33.7391304 8.31995592 42.173913 8.38601639 50.6086957 8.49773557 59.0434783 6.20408327 67.4782609 4.53617677 75.9130435 10.7446261 84.3478261 10.6439968 92.7826087 1.63074949 101.217391 0.59792137 109.652174 5.27863175 118.086957 6.18899741 126.521739 6.48638551 134.956522 11.6386978 143.391304 11.5361768 151.826087 5.53711400 160.26087 12.0615579 168.695652 9.1861002 177.130435 2.7453572 185.565217 8.81743973 194 7.62352526 202.434783 5.82489476 210.869565 11.5334893 219.304348 12.5079076 227.73913 11.7041087 236.173913 5.62771499 244.608696 2.23594458 253.043478 8.73023153 261.478261 3.80839436 269.913043 11.6358462 278.347826 11.4341175 286.782609 7.29421081 295.217391 2.66453526e-14 303.652174 11.9779972 312.086957 8.48213959 320.521739 9.65912578 328.956522 13.5694718 337.391304 10.8007694 345.826087 8.90150963 354.26087 2.66297934 362.695652 1.13333425 371.130435 1.82738028 379.565217 9.71842752 400 10"></polyline>
      <polyline id="dashed-line-red" stroke="#CC3336" points="0 13 8.43478261 13.5 16.8695652 13.9448856 25.3043478 15.5961552 33.7391304 14.5042387 42.173913 14.6429862 50.6086957 16.4094424 59.0434783 15.3114175 67.4782609 14.1302313 75.9130435 12.8514855 84.3478261 12.448507 92.7826087 13.3459153 101.217391 15.0231892 109.652174 13.8692289 118.086957 13.7923506 126.521739 12.3129882 134.956522 14.1763932 143.391304 14.4847791 151.826087 15.736997 160.26087 16.2638012 168.695652 15.8419739 177.130435 14.8079124 185.565217 13.7755962 194 15.3040874 202.434783 16.2330848 210.869565 15.8299099 219.304348 15.8494567 227.73913 14.6757969 236.173913 16.4581349 244.608696 16.0675477 253.043478 17.5361768 261.478261 16.2521953 269.913043 16.1010565 278.347826 15.0669077 286.782609 13.7913034 295.217391 13.6756805 303.652174 14.5188115 312.086957 15.8794096 320.521739 14.8916845 328.956522 13.838338 337.391304 14.9565206 345.826087 16.6953146 354.26087 15.1277297 362.695652 13.5963589 371.130435 11.5361768 379.565217 12.8054109 400 13"></polyline>
    </g>
  </g>
</svg>